<svg width="274" height="129" viewBox="0 0 274 129" fill="none" xmlns="http://www.w3.org/2000/svg">
<rect x="42" y="5.79907" width="10" height="10.1402" rx="1" fill="#439090"/>
<rect x="42" y="17.9673" width="10" height="10.1402" rx="1" fill="#439090"/>
<rect x="42" y="30.1355" width="10" height="10.1402" rx="1" fill="#439090"/>
<rect x="42" y="42.3037" width="10" height="10.1402" rx="1" fill="#439090"/>
<rect x="42" y="54.472" width="10" height="10.1402" rx="1" fill="#439090"/>
<rect x="42" y="66.6402" width="10" height="10.1402" rx="1" fill="#439090"/>
<rect x="42" y="78.8084" width="10" height="10.1402" rx="1" fill="#439090"/>
<rect x="42" y="90.9766" width="10" height="10.1402" rx="1" fill="#439090"/>
<rect x="42" y="103.145" width="10" height="10.1402" rx="1" fill="#439090"/>
<rect x="42" y="115.313" width="10" height="10.1402" rx="1" fill="#439090"/>
<rect x="54" y="5.79907" width="10" height="10.1402" rx="1" fill="#439090"/>
<rect x="54" y="17.9673" width="10" height="10.1402" rx="1" fill="#439090"/>
<rect x="54" y="30.1355" width="10" height="10.1402" rx="1" fill="#439090"/>
<rect x="54" y="42.3037" width="10" height="10.1402" rx="1" fill="#439090"/>
<rect x="54" y="54.472" width="10" height="10.1402" rx="1" fill="#439090"/>
<rect x="54" y="66.6402" width="10" height="10.1402" rx="1" fill="#439090"/>
<rect x="54" y="78.8084" width="10" height="10.1402" rx="1" fill="#439090"/>
<rect x="54" y="90.9766" width="10" height="10.1402" rx="1" fill="#439090"/>
<rect x="54" y="103.145" width="10" height="10.1402" rx="1" fill="#439090"/>
<rect x="54" y="115.313" width="10" height="10.1402" rx="1" fill="#439090"/>
<rect x="66" y="5.79907" width="10" height="10.1402" rx="1" fill="#439090"/>
<rect x="66" y="17.9673" width="10" height="10.1402" rx="1" fill="#439090"/>
<rect x="66" y="30.1355" width="10" height="10.1402" rx="1" fill="#439090"/>
<rect x="66" y="42.3037" width="10" height="10.1402" rx="1" fill="#439090"/>
<rect x="66" y="54.472" width="10" height="10.1402" rx="1" fill="#439090"/>
<rect x="66" y="66.6402" width="10" height="10.1402" rx="1" fill="#439090"/>
<rect x="66" y="78.8084" width="10" height="10.1402" rx="1" fill="#439090"/>
<rect x="66" y="90.9766" width="10" height="10.1402" rx="1" fill="#439090"/>
<rect x="66" y="103.145" width="10" height="10.1402" rx="1" fill="#439090"/>
<rect x="66" y="115.313" width="10" height="10.1402" rx="1" fill="#439090"/>
<rect x="78" y="5.79907" width="10" height="10.1402" rx="1" fill="#439090"/>
<rect x="78" y="17.9673" width="10" height="10.1402" rx="1" fill="#439090"/>
<rect x="78" y="30.1355" width="10" height="10.1402" rx="1" fill="#439090"/>
<rect x="78" y="42.3037" width="10" height="10.1402" rx="1" fill="#439090"/>
<rect x="78" y="54.472" width="10" height="10.1402" rx="1" fill="#439090"/>
<rect x="78" y="66.6402" width="10" height="10.1402" rx="1" fill="#439090"/>
<rect x="78" y="78.8084" width="10" height="10.1402" rx="1" fill="#439090"/>
<rect x="78" y="90.9766" width="10" height="10.1402" rx="1" fill="#439090"/>
<rect x="78" y="103.145" width="10" height="10.1402" rx="1" fill="#439090"/>
<rect x="78" y="115.313" width="10" height="10.1402" rx="1" fill="#439090"/>
<rect x="90" y="5.79907" width="10" height="10.1402" rx="1" fill="#439090"/>
<rect x="90" y="17.9673" width="10" height="10.1402" rx="1" fill="#439090"/>
<rect x="90" y="30.1355" width="10" height="10.1402" rx="1" fill="#439090"/>
<rect x="90" y="42.3037" width="10" height="10.1402" rx="1" fill="#439090"/>
<rect x="90" y="54.472" width="10" height="10.1402" rx="1" fill="#439090"/>
<rect x="90" y="66.6402" width="10" height="10.1402" rx="1" fill="#439090"/>
<rect x="90" y="78.8084" width="10" height="10.1402" rx="1" fill="#439090"/>
<rect x="90" y="90.9766" width="10" height="10.1402" rx="1" fill="#439090"/>
<rect x="90" y="103.145" width="10" height="10.1402" rx="1" fill="#439090"/>
<rect x="90" y="115.313" width="10" height="10.1402" rx="1" fill="#439090"/>
<rect x="102" y="5.79907" width="10" height="10.1402" rx="1" fill="#439090"/>
<rect x="102" y="17.9673" width="10" height="10.1402" rx="1" fill="#439090"/>
<rect x="102" y="30.1355" width="10" height="10.1402" rx="1" fill="#439090"/>
<rect x="102" y="42.3037" width="10" height="10.1402" rx="1" fill="#439090"/>
<rect x="102" y="54.472" width="10" height="10.1402" rx="1" fill="#439090"/>
<rect x="102" y="66.6402" width="10" height="10.1402" rx="1" fill="#439090"/>
<rect x="102" y="78.8084" width="10" height="10.1402" rx="1" fill="#439090"/>
<rect x="102" y="90.9766" width="10" height="10.1402" rx="1" fill="#439090"/>
<rect x="102" y="103.145" width="10" height="10.1402" rx="1" fill="#439090"/>
<rect x="102" y="115.313" width="10" height="10.1402" rx="1" fill="#439090"/>
<rect x="114" y="5.79907" width="10" height="10.1402" rx="1" fill="#439090"/>
<rect x="114" y="17.9673" width="10" height="10.1402" rx="1" fill="#439090"/>
<rect x="114" y="30.1355" width="10" height="10.1402" rx="1" fill="#439090"/>
<rect x="114" y="42.3037" width="10" height="10.1402" rx="1" fill="#439090"/>
<rect x="114" y="54.472" width="10" height="10.1402" rx="1" fill="#439090"/>
<rect x="114" y="66.6402" width="10" height="10.1402" rx="1" fill="#439090"/>
<rect x="114" y="78.8084" width="10" height="10.1402" rx="1" fill="#439090"/>
<rect x="114" y="90.9766" width="10" height="10.1402" rx="1" fill="#439090"/>
<rect x="114" y="103.145" width="10" height="10.1402" rx="1" fill="#439090"/>
<rect x="114" y="115.313" width="10" height="10.1402" rx="1" fill="#439090"/>
<rect x="126" y="5.79907" width="10" height="10.1402" rx="1" fill="#439090"/>
<rect x="126" y="17.9673" width="10" height="10.1402" rx="1" fill="#439090"/>
<rect x="126" y="30.1355" width="10" height="10.1402" rx="1" fill="#439090"/>
<rect x="126" y="42.3037" width="10" height="10.1402" rx="1" fill="#439090"/>
<rect x="126" y="54.472" width="10" height="10.1402" rx="1" fill="#439090"/>
<rect x="126" y="66.6402" width="10" height="10.1402" rx="1" fill="#439090"/>
<rect x="126" y="78.8084" width="10" height="10.1402" rx="1" fill="#439090"/>
<rect x="126" y="90.9766" width="10" height="10.1402" rx="1" fill="#439090"/>
<rect x="126" y="103.145" width="10" height="10.1402" rx="1" fill="#439090"/>
<rect x="126" y="115.313" width="10" height="10.1402" rx="1" fill="#FF3824"/>
<rect x="138" y="5.79907" width="10" height="10.1402" rx="1" fill="#439090"/>
<rect x="138" y="17.9673" width="10" height="10.1402" rx="1" fill="#439090"/>
<rect x="138" y="30.1355" width="10" height="10.1402" rx="1" fill="#439090"/>
<rect x="138" y="42.3037" width="10" height="10.1402" rx="1" fill="#439090"/>
<rect x="138" y="54.472" width="10" height="10.1402" rx="1" fill="#439090"/>
<rect x="138" y="66.6402" width="10" height="10.1402" rx="1" fill="#439090"/>
<rect x="138" y="78.8084" width="10" height="10.1402" rx="1" fill="#439090"/>
<rect x="138" y="90.9766" width="10" height="10.1402" rx="1" fill="#439090"/>
<rect x="138" y="103.145" width="10" height="10.1402" rx="1" fill="#FF3824"/>
<rect x="138" y="115.313" width="10" height="10.1402" rx="1" fill="#FF3824"/>
<rect x="150" y="5.79907" width="10" height="10.1402" rx="1" fill="#439090"/>
<rect x="150" y="17.9673" width="10" height="10.1402" rx="1" fill="#439090"/>
<rect x="150" y="30.1355" width="10" height="10.1402" rx="1" fill="#439090"/>
<rect x="150" y="42.3037" width="10" height="10.1402" rx="1" fill="#439090"/>
<rect x="150" y="54.472" width="10" height="10.1402" rx="1" fill="#439090"/>
<rect x="150" y="66.6402" width="10" height="10.1402" rx="1" fill="#439090"/>
<rect x="150" y="78.8084" width="10" height="10.1402" rx="1" fill="#439090"/>
<rect x="150" y="90.9766" width="10" height="10.1402" rx="1" fill="#439090"/>
<rect x="150" y="103.145" width="10" height="10.1402" rx="1" fill="#FF3824"/>
<rect x="150" y="115.313" width="10" height="10.1402" rx="1" fill="#FF3824"/>
<path d="M165.331 103.369L166.417 94.2873H176.805V97.4855H169.762L169.359 101.013C169.652 100.842 170.034 100.692 170.506 100.562C170.986 100.432 171.454 100.366 171.91 100.366C173.676 100.366 175.031 100.891 175.975 101.941C176.927 102.983 177.403 104.448 177.403 106.336C177.403 107.475 177.147 108.508 176.634 109.436C176.13 110.356 175.418 111.064 174.498 111.56C173.578 112.057 172.492 112.305 171.239 112.305C170.124 112.305 169.078 112.077 168.102 111.621C167.125 111.157 166.36 110.527 165.807 109.729C165.253 108.924 164.981 108.016 164.989 107.007H169.115C169.155 107.658 169.363 108.175 169.737 108.557C170.112 108.94 170.604 109.131 171.214 109.131C172.598 109.131 173.29 108.106 173.29 106.055C173.29 104.159 172.443 103.211 170.75 103.211C169.79 103.211 169.074 103.52 168.602 104.138L165.331 103.369ZM179.576 97.7053C179.576 96.6066 179.934 95.7196 180.65 95.0441C181.367 94.3687 182.327 94.031 183.531 94.031C184.752 94.031 185.716 94.3687 186.424 95.0441C187.132 95.7115 187.486 96.6189 187.486 97.7663V98.6452C187.486 99.7439 187.132 100.627 186.424 101.294C185.716 101.961 184.76 102.295 183.556 102.295C182.359 102.295 181.395 101.966 180.663 101.306C179.938 100.639 179.576 99.7276 179.576 98.572V97.7053ZM182.225 98.6452C182.225 99.0684 182.343 99.4143 182.579 99.6828C182.815 99.9432 183.141 100.073 183.556 100.073C184.41 100.073 184.837 99.5282 184.837 98.4377V97.7053C184.837 97.2821 184.723 96.9362 184.496 96.6677C184.268 96.391 183.946 96.2526 183.531 96.2526C183.132 96.2526 182.815 96.3869 182.579 96.6555C182.343 96.9159 182.225 97.274 182.225 97.7297V98.6452ZM188.023 107.703C188.023 106.596 188.382 105.709 189.098 105.042C189.822 104.374 190.782 104.041 191.979 104.041C193.191 104.041 194.155 104.37 194.872 105.029C195.588 105.689 195.946 106.608 195.946 107.788V108.643C195.946 109.75 195.592 110.637 194.884 111.304C194.176 111.971 193.215 112.305 192.003 112.305C190.807 112.305 189.842 111.975 189.11 111.316C188.386 110.649 188.023 109.737 188.023 108.582V107.703ZM190.66 108.643C190.66 109.025 190.79 109.363 191.051 109.656C191.311 109.941 191.629 110.083 192.003 110.083C192.792 110.083 193.22 109.709 193.285 108.96L193.297 107.703C193.297 107.272 193.179 106.926 192.943 106.665C192.707 106.397 192.385 106.262 191.979 106.262C191.588 106.262 191.275 106.389 191.039 106.641C190.803 106.885 190.676 107.219 190.66 107.642V108.643ZM184.337 110.73L182.42 109.766L191.1 95.8742L193.016 96.8386L184.337 110.73ZM170.299 126.061H164.709V125.281L167.662 122C168.1 121.504 168.4 121.102 168.564 120.793C168.732 120.481 168.816 120.158 168.816 119.826C168.816 119.381 168.682 119.016 168.412 118.731C168.143 118.446 167.783 118.303 167.334 118.303C166.795 118.303 166.375 118.457 166.074 118.766C165.777 119.071 165.629 119.496 165.629 120.043H164.545C164.545 119.258 164.797 118.623 165.301 118.139C165.809 117.654 166.486 117.412 167.334 117.412C168.127 117.412 168.754 117.621 169.215 118.039C169.676 118.453 169.906 119.006 169.906 119.697C169.906 120.537 169.371 121.537 168.301 122.697L166.016 125.176H170.299V126.061ZM176.791 122.879H173.932V121.994H176.791V122.879ZM187.561 122.071C187.561 122.906 187.42 123.637 187.139 124.262C186.857 124.883 186.459 125.358 185.943 125.686C185.428 126.014 184.826 126.178 184.139 126.178C183.467 126.178 182.871 126.014 182.352 125.686C181.832 125.354 181.428 124.883 181.139 124.274C180.854 123.66 180.707 122.951 180.699 122.147V121.531C180.699 120.711 180.842 119.987 181.127 119.358C181.412 118.729 181.814 118.248 182.334 117.916C182.857 117.58 183.455 117.412 184.127 117.412C184.811 117.412 185.412 117.578 185.932 117.91C186.455 118.238 186.857 118.717 187.139 119.346C187.42 119.971 187.561 120.699 187.561 121.531V122.071ZM186.441 121.52C186.441 120.508 186.238 119.733 185.832 119.194C185.426 118.651 184.857 118.379 184.127 118.379C183.416 118.379 182.855 118.651 182.445 119.194C182.039 119.733 181.83 120.483 181.818 121.444V122.071C181.818 123.051 182.023 123.822 182.434 124.385C182.848 124.944 183.416 125.223 184.139 125.223C184.865 125.223 185.428 124.959 185.826 124.432C186.225 123.901 186.43 123.141 186.441 122.153V121.52ZM192.992 125.434C192.57 125.93 191.951 126.178 191.135 126.178C190.459 126.178 189.943 125.983 189.588 125.592C189.236 125.197 189.059 124.615 189.055 123.846V119.721H190.139V123.817C190.139 124.778 190.529 125.258 191.311 125.258C192.139 125.258 192.689 124.949 192.963 124.332V119.721H194.047V126.061H193.016L192.992 125.434ZM197.17 118.186V119.721H198.354V120.559H197.17V124.49C197.17 124.744 197.223 124.936 197.328 125.065C197.434 125.19 197.613 125.252 197.867 125.252C197.992 125.252 198.164 125.229 198.383 125.182V126.061C198.098 126.139 197.82 126.178 197.551 126.178C197.066 126.178 196.701 126.031 196.455 125.738C196.209 125.446 196.086 125.029 196.086 124.49V120.559H194.932V119.721H196.086V118.186H197.17ZM203.316 124.379C203.316 124.086 203.205 123.86 202.982 123.699C202.764 123.535 202.379 123.395 201.828 123.278C201.281 123.16 200.846 123.02 200.521 122.856C200.201 122.692 199.963 122.496 199.807 122.27C199.654 122.043 199.578 121.774 199.578 121.461C199.578 120.942 199.797 120.502 200.234 120.143C200.676 119.783 201.238 119.604 201.922 119.604C202.641 119.604 203.223 119.789 203.668 120.16C204.117 120.531 204.342 121.006 204.342 121.584H203.252C203.252 121.287 203.125 121.031 202.871 120.817C202.621 120.602 202.305 120.494 201.922 120.494C201.527 120.494 201.219 120.58 200.996 120.752C200.773 120.924 200.662 121.149 200.662 121.426C200.662 121.688 200.766 121.885 200.973 122.018C201.18 122.151 201.553 122.278 202.092 122.399C202.635 122.52 203.074 122.664 203.41 122.832C203.746 123 203.994 123.203 204.154 123.442C204.318 123.676 204.4 123.963 204.4 124.303C204.4 124.869 204.174 125.324 203.721 125.668C203.268 126.008 202.68 126.178 201.957 126.178C201.449 126.178 201 126.088 200.609 125.908C200.219 125.729 199.912 125.479 199.689 125.158C199.471 124.834 199.361 124.485 199.361 124.11H200.445C200.465 124.473 200.609 124.762 200.879 124.977C201.152 125.188 201.512 125.293 201.957 125.293C202.367 125.293 202.695 125.211 202.941 125.047C203.191 124.879 203.316 124.656 203.316 124.379ZM206.99 126.061H205.906V119.721H206.99V126.061ZM205.818 118.039C205.818 117.863 205.871 117.715 205.977 117.594C206.086 117.473 206.246 117.412 206.457 117.412C206.668 117.412 206.828 117.473 206.938 117.594C207.047 117.715 207.102 117.863 207.102 118.039C207.102 118.215 207.047 118.362 206.938 118.479C206.828 118.596 206.668 118.654 206.457 118.654C206.246 118.654 206.086 118.596 205.977 118.479C205.871 118.362 205.818 118.215 205.818 118.039ZM208.467 122.838C208.467 121.865 208.697 121.084 209.158 120.494C209.619 119.901 210.223 119.604 210.969 119.604C211.711 119.604 212.299 119.858 212.732 120.365V117.061H213.816V126.061H212.82L212.768 125.381C212.334 125.912 211.73 126.178 210.957 126.178C210.223 126.178 209.623 125.877 209.158 125.276C208.697 124.674 208.467 123.889 208.467 122.92V122.838ZM209.551 122.961C209.551 123.68 209.699 124.242 209.996 124.649C210.293 125.055 210.703 125.258 211.227 125.258C211.914 125.258 212.416 124.949 212.732 124.332V121.42C212.408 120.822 211.91 120.524 211.238 120.524C210.707 120.524 210.293 120.729 209.996 121.139C209.699 121.549 209.551 122.156 209.551 122.961ZM218.135 126.178C217.275 126.178 216.576 125.897 216.037 125.334C215.498 124.768 215.229 124.012 215.229 123.067V122.867C215.229 122.238 215.348 121.678 215.586 121.186C215.828 120.69 216.164 120.303 216.594 120.026C217.027 119.744 217.496 119.604 218 119.604C218.824 119.604 219.465 119.875 219.922 120.418C220.379 120.961 220.607 121.738 220.607 122.75V123.201H216.312C216.328 123.826 216.51 124.332 216.857 124.719C217.209 125.102 217.654 125.293 218.193 125.293C218.576 125.293 218.9 125.215 219.166 125.059C219.432 124.903 219.664 124.696 219.863 124.438L220.525 124.953C219.994 125.77 219.197 126.178 218.135 126.178ZM218 120.494C217.562 120.494 217.195 120.654 216.898 120.975C216.602 121.291 216.418 121.737 216.348 122.311H219.523V122.229C219.492 121.678 219.344 121.252 219.078 120.951C218.812 120.647 218.453 120.494 218 120.494ZM226.021 126.061H224.938V117.061H226.021V126.061ZM228.939 126.061H227.855V119.721H228.939V126.061ZM227.768 118.039C227.768 117.863 227.82 117.715 227.926 117.594C228.035 117.473 228.195 117.412 228.406 117.412C228.617 117.412 228.777 117.473 228.887 117.594C228.996 117.715 229.051 117.863 229.051 118.039C229.051 118.215 228.996 118.362 228.887 118.479C228.777 118.596 228.617 118.654 228.406 118.654C228.195 118.654 228.035 118.596 227.926 118.479C227.82 118.362 227.768 118.215 227.768 118.039ZM231.699 119.721L231.729 120.424C232.193 119.877 232.82 119.604 233.609 119.604C234.496 119.604 235.1 119.944 235.42 120.623C235.631 120.319 235.904 120.072 236.24 119.885C236.58 119.697 236.98 119.604 237.441 119.604C238.832 119.604 239.539 120.34 239.562 121.813V126.061H238.479V121.877C238.479 121.424 238.375 121.086 238.168 120.863C237.961 120.637 237.613 120.524 237.125 120.524C236.723 120.524 236.389 120.645 236.123 120.887C235.857 121.125 235.703 121.447 235.66 121.854V126.061H234.57V121.906C234.57 120.985 234.119 120.524 233.217 120.524C232.506 120.524 232.02 120.826 231.758 121.432V126.061H230.674V119.721H231.699ZM242.381 126.061H241.297V119.721H242.381V126.061ZM241.209 118.039C241.209 117.863 241.262 117.715 241.367 117.594C241.477 117.473 241.637 117.412 241.848 117.412C242.059 117.412 242.219 117.473 242.328 117.594C242.438 117.715 242.492 117.863 242.492 118.039C242.492 118.215 242.438 118.362 242.328 118.479C242.219 118.596 242.059 118.654 241.848 118.654C241.637 118.654 241.477 118.596 241.367 118.479C241.262 118.362 241.209 118.215 241.209 118.039ZM245.592 118.186V119.721H246.775V120.559H245.592V124.49C245.592 124.744 245.645 124.936 245.75 125.065C245.855 125.19 246.035 125.252 246.289 125.252C246.414 125.252 246.586 125.229 246.805 125.182V126.061C246.52 126.139 246.242 126.178 245.973 126.178C245.488 126.178 245.123 126.031 244.877 125.738C244.631 125.446 244.508 125.029 244.508 124.49V120.559H243.354V119.721H244.508V118.186H245.592ZM251.738 124.379C251.738 124.086 251.627 123.86 251.404 123.699C251.186 123.535 250.801 123.395 250.25 123.278C249.703 123.16 249.268 123.02 248.943 122.856C248.623 122.692 248.385 122.496 248.229 122.27C248.076 122.043 248 121.774 248 121.461C248 120.942 248.219 120.502 248.656 120.143C249.098 119.783 249.66 119.604 250.344 119.604C251.062 119.604 251.645 119.789 252.09 120.16C252.539 120.531 252.764 121.006 252.764 121.584H251.674C251.674 121.287 251.547 121.031 251.293 120.817C251.043 120.602 250.727 120.494 250.344 120.494C249.949 120.494 249.641 120.58 249.418 120.752C249.195 120.924 249.084 121.149 249.084 121.426C249.084 121.688 249.188 121.885 249.395 122.018C249.602 122.151 249.975 122.278 250.514 122.399C251.057 122.52 251.496 122.664 251.832 122.832C252.168 123 252.416 123.203 252.576 123.442C252.74 123.676 252.822 123.963 252.822 124.303C252.822 124.869 252.596 125.324 252.143 125.668C251.689 126.008 251.102 126.178 250.379 126.178C249.871 126.178 249.422 126.088 249.031 125.908C248.641 125.729 248.334 125.479 248.111 125.158C247.893 124.834 247.783 124.485 247.783 124.11H248.867C248.887 124.473 249.031 124.762 249.301 124.977C249.574 125.188 249.934 125.293 250.379 125.293C250.789 125.293 251.117 125.211 251.363 125.047C251.613 124.879 251.738 124.656 251.738 124.379Z" fill="#FF3824"/>
<path d="M175.192 16.8844C174.305 17.6819 173.312 18.0807 172.213 18.0807C170.602 18.0807 169.324 17.5354 168.38 16.4449C167.436 15.3545 166.964 13.8977 166.964 12.0748C166.964 10.9355 167.229 9.87756 167.758 8.901C168.287 7.92444 169.027 7.15133 169.979 6.58167C170.94 6.012 171.998 5.72717 173.153 5.72717C174.325 5.72717 175.383 6.02421 176.327 6.61829C177.279 7.20422 178.02 8.03837 178.549 9.12073C179.078 10.1949 179.35 11.436 179.367 12.8439V14.4186C179.367 16.3798 178.98 18.0807 178.207 19.5211C177.442 20.9615 176.347 22.0683 174.923 22.8414C173.499 23.6145 171.839 24.0011 169.943 24.0011H169.687V20.7052L170.468 20.693C173.3 20.5546 174.875 19.2851 175.192 16.8844ZM173.324 15.1144C174.219 15.1144 174.862 14.7278 175.253 13.9547V12.2457C175.253 11.1064 175.062 10.2641 174.679 9.71887C174.297 9.17362 173.78 8.901 173.129 8.901C172.551 8.901 172.067 9.21025 171.676 9.82874C171.286 10.4472 171.09 11.1959 171.09 12.0748C171.09 13.0026 171.29 13.7431 171.688 14.2965C172.087 14.8418 172.632 15.1144 173.324 15.1144ZM181.808 15.0656L182.895 5.98352H193.283V9.18176H186.239L185.836 12.7096C186.129 12.5387 186.512 12.3881 186.984 12.2579C187.464 12.1277 187.932 12.0626 188.388 12.0626C190.154 12.0626 191.509 12.5875 192.453 13.6373C193.405 14.679 193.881 16.1438 193.881 18.0319C193.881 19.1712 193.625 20.2047 193.112 21.1324C192.607 22.052 191.895 22.7601 190.976 23.2565C190.056 23.7529 188.97 24.0011 187.716 24.0011C186.601 24.0011 185.556 23.7732 184.579 23.3175C183.603 22.8536 182.838 22.2229 182.284 21.4254C181.731 20.6198 181.458 19.7124 181.466 18.7032H185.592C185.633 19.3543 185.84 19.8711 186.215 20.2535C186.589 20.636 187.082 20.8273 187.692 20.8273C189.075 20.8273 189.767 19.8019 189.767 17.7511C189.767 15.8549 188.921 14.9069 187.228 14.9069C186.268 14.9069 185.552 15.2161 185.08 15.8346L181.808 15.0656ZM196.054 9.40149C196.054 8.30286 196.412 7.41581 197.128 6.74036C197.844 6.0649 198.804 5.72717 200.009 5.72717C201.229 5.72717 202.194 6.0649 202.902 6.74036C203.61 7.40767 203.964 8.31506 203.964 9.46252V10.3414C203.964 11.4401 203.61 12.323 202.902 12.9904C202.194 13.6577 201.238 13.9913 200.033 13.9913C198.837 13.9913 197.873 13.6617 197.14 13.0026C196.416 12.3352 196.054 11.4238 196.054 10.2682V9.40149ZM198.703 10.3414C198.703 10.7646 198.821 11.1105 199.057 11.379C199.293 11.6394 199.618 11.7697 200.033 11.7697C200.888 11.7697 201.315 11.2244 201.315 10.1339V9.40149C201.315 8.97831 201.201 8.63245 200.973 8.36389C200.745 8.0872 200.424 7.94885 200.009 7.94885C199.61 7.94885 199.293 8.08313 199.057 8.35168C198.821 8.6121 198.703 8.97017 198.703 9.4259V10.3414ZM204.501 19.399C204.501 18.2923 204.859 17.4052 205.575 16.7379C206.299 16.0706 207.26 15.7369 208.456 15.7369C209.669 15.7369 210.633 16.0665 211.349 16.7257C212.065 17.3849 212.423 18.3045 212.423 19.4845V20.339C212.423 21.4458 212.069 22.3328 211.361 23.0001C210.653 23.6674 209.693 24.0011 208.48 24.0011C207.284 24.0011 206.32 23.6715 205.587 23.0123C204.863 22.345 204.501 21.4336 204.501 20.278V19.399ZM207.138 20.339C207.138 20.7215 207.268 21.0592 207.528 21.3522C207.789 21.637 208.106 21.7794 208.48 21.7794C209.27 21.7794 209.697 21.4051 209.762 20.6564L209.774 19.399C209.774 18.9677 209.656 18.6219 209.42 18.3615C209.184 18.0929 208.863 17.9586 208.456 17.9586C208.065 17.9586 207.752 18.0848 207.516 18.337C207.28 18.5812 207.154 18.9148 207.138 19.338V20.339ZM200.814 22.4264L198.898 21.462L207.577 7.57043L209.494 8.53479L200.814 22.4264ZM168.285 32.964H169.1C169.611 32.9562 170.014 32.8214 170.307 32.5597C170.6 32.298 170.746 31.9445 170.746 31.4991C170.746 30.4991 170.248 29.9991 169.252 29.9991C168.783 29.9991 168.408 30.1339 168.127 30.4034C167.85 30.6691 167.711 31.0226 167.711 31.464H166.627C166.627 30.7882 166.873 30.2277 167.365 29.7823C167.861 29.3331 168.49 29.1085 169.252 29.1085C170.057 29.1085 170.688 29.3214 171.145 29.7472C171.602 30.173 171.83 30.7648 171.83 31.5226C171.83 31.8937 171.709 32.2531 171.467 32.6007C171.229 32.9484 170.902 33.2081 170.488 33.38C170.957 33.5284 171.318 33.7745 171.572 34.1183C171.83 34.462 171.959 34.882 171.959 35.3781C171.959 36.1437 171.709 36.7511 171.209 37.2003C170.709 37.6495 170.059 37.8741 169.258 37.8741C168.457 37.8741 167.805 37.6573 167.301 37.2238C166.801 36.7902 166.551 36.2179 166.551 35.507H167.641C167.641 35.9562 167.787 36.3156 168.08 36.5851C168.373 36.8546 168.766 36.9894 169.258 36.9894C169.781 36.9894 170.182 36.8527 170.459 36.5792C170.736 36.3058 170.875 35.9132 170.875 35.4015C170.875 34.9054 170.723 34.5245 170.418 34.2589C170.113 33.9933 169.674 33.8566 169.1 33.8488H168.285V32.964ZM173.945 33.4796L174.379 29.2257H178.75V30.2277H175.299L175.041 32.5538C175.459 32.3077 175.934 32.1847 176.465 32.1847C177.242 32.1847 177.859 32.4425 178.316 32.9581C178.773 33.4698 179.002 34.1632 179.002 35.0382C179.002 35.9171 178.764 36.6105 178.287 37.1183C177.814 37.6222 177.152 37.8741 176.301 37.8741C175.547 37.8741 174.932 37.6652 174.455 37.2472C173.979 36.8292 173.707 36.2511 173.641 35.5128H174.666C174.732 36.0011 174.906 36.3702 175.188 36.6202C175.469 36.8663 175.84 36.9894 176.301 36.9894C176.805 36.9894 177.199 36.8175 177.484 36.4738C177.773 36.13 177.918 35.6554 177.918 35.0499C177.918 34.4796 177.762 34.0226 177.449 33.6788C177.141 33.3312 176.729 33.1573 176.213 33.1573C175.74 33.1573 175.369 33.2609 175.1 33.4679L174.812 33.7023L173.945 33.4796ZM185.529 34.5753H182.67V33.6906H185.529V34.5753ZM196.035 36.6378C195.746 37.0519 195.342 37.3624 194.822 37.5695C194.307 37.7726 193.705 37.8741 193.018 37.8741C192.322 37.8741 191.705 37.712 191.166 37.3878C190.627 37.0597 190.209 36.5948 189.912 35.9933C189.619 35.3917 189.469 34.6945 189.461 33.9015V33.1573C189.461 31.8722 189.76 30.8761 190.357 30.1691C190.959 29.462 191.803 29.1085 192.889 29.1085C193.779 29.1085 194.496 29.337 195.039 29.7941C195.582 30.2472 195.914 30.8917 196.035 31.7277H194.91C194.699 30.5988 194.027 30.0343 192.895 30.0343C192.141 30.0343 191.568 30.2999 191.178 30.8312C190.791 31.3585 190.596 32.1241 190.592 33.1281V33.8253C190.592 34.7823 190.811 35.5441 191.248 36.1105C191.686 36.673 192.277 36.9542 193.023 36.9542C193.445 36.9542 193.814 36.9073 194.131 36.8136C194.447 36.7198 194.709 36.5616 194.916 36.339V34.423H192.941V33.5089H196.035V36.6378ZM197.459 34.5284C197.459 33.9073 197.58 33.3488 197.822 32.8527C198.068 32.3566 198.408 31.9738 198.842 31.7042C199.279 31.4347 199.777 31.2999 200.336 31.2999C201.199 31.2999 201.896 31.5988 202.428 32.1964C202.963 32.7941 203.23 33.589 203.23 34.5812V34.6573C203.23 35.2745 203.111 35.8292 202.873 36.3214C202.639 36.8097 202.301 37.1906 201.859 37.464C201.422 37.7374 200.918 37.8741 200.348 37.8741C199.488 37.8741 198.791 37.5753 198.256 36.9777C197.725 36.38 197.459 35.589 197.459 34.6046V34.5284ZM198.549 34.6573C198.549 35.3605 198.711 35.9249 199.035 36.3507C199.363 36.7765 199.801 36.9894 200.348 36.9894C200.898 36.9894 201.336 36.7745 201.66 36.3448C201.984 35.9113 202.146 35.3058 202.146 34.5284C202.146 33.8331 201.98 33.2706 201.648 32.8409C201.32 32.4073 200.883 32.1906 200.336 32.1906C199.801 32.1906 199.369 32.4034 199.041 32.8292C198.713 33.255 198.549 33.8644 198.549 34.6573ZM204.303 34.5284C204.303 33.9073 204.424 33.3488 204.666 32.8527C204.912 32.3566 205.252 31.9738 205.686 31.7042C206.123 31.4347 206.621 31.2999 207.18 31.2999C208.043 31.2999 208.74 31.5988 209.271 32.1964C209.807 32.7941 210.074 33.589 210.074 34.5812V34.6573C210.074 35.2745 209.955 35.8292 209.717 36.3214C209.482 36.8097 209.145 37.1906 208.703 37.464C208.266 37.7374 207.762 37.8741 207.191 37.8741C206.332 37.8741 205.635 37.5753 205.1 36.9777C204.568 36.38 204.303 35.589 204.303 34.6046V34.5284ZM205.393 34.6573C205.393 35.3605 205.555 35.9249 205.879 36.3507C206.207 36.7765 206.645 36.9894 207.191 36.9894C207.742 36.9894 208.18 36.7745 208.504 36.3448C208.828 35.9113 208.99 35.3058 208.99 34.5284C208.99 33.8331 208.824 33.2706 208.492 32.8409C208.164 32.4073 207.727 32.1906 207.18 32.1906C206.645 32.1906 206.213 32.4034 205.885 32.8292C205.557 33.255 205.393 33.8644 205.393 34.6573ZM211.17 34.5343C211.17 33.5616 211.4 32.7804 211.861 32.1906C212.322 31.5968 212.926 31.2999 213.672 31.2999C214.414 31.2999 215.002 31.5538 215.436 32.0616V28.757H216.52V37.757H215.523L215.471 37.0773C215.037 37.6085 214.434 37.8741 213.66 37.8741C212.926 37.8741 212.326 37.5734 211.861 36.9718C211.4 36.3702 211.17 35.5851 211.17 34.6163V34.5343ZM212.254 34.6573C212.254 35.3761 212.402 35.9386 212.699 36.3448C212.996 36.7511 213.406 36.9542 213.93 36.9542C214.617 36.9542 215.119 36.6456 215.436 36.0284V33.1163C215.111 32.5187 214.613 32.2198 213.941 32.2198C213.41 32.2198 212.996 32.4249 212.699 32.8351C212.402 33.2452 212.254 33.8527 212.254 34.6573Z" fill="#439090"/>
<path d="M4.84619 63.3921H6.78711C8.3252 63.3921 9.09424 62.6393 9.09424 61.1338C9.09424 60.5479 8.91113 60.0718 8.54492 59.7056C8.17871 59.3312 7.66195 59.144 6.99463 59.144C6.44938 59.144 5.97331 59.3027 5.56641 59.6201C5.16764 59.9375 4.96826 60.3322 4.96826 60.8042H0.854492C0.854492 59.8683 1.11491 59.0342 1.63574 58.3018C2.15658 57.5693 2.87679 56.9997 3.79639 56.5928C4.72412 56.1777 5.74137 55.9702 6.84814 55.9702C8.82568 55.9702 10.38 56.4219 11.5112 57.3252C12.6424 58.2285 13.208 59.4696 13.208 61.0483C13.208 61.8133 12.972 62.5376 12.5 63.2212C12.0361 63.8966 11.3566 64.446 10.4614 64.8691C11.4054 65.2109 12.146 65.7318 12.6831 66.4316C13.2202 67.1234 13.4888 67.9819 13.4888 69.0073C13.4888 70.5942 12.8784 71.8638 11.6577 72.8159C10.437 73.7681 8.83382 74.2441 6.84814 74.2441C5.68441 74.2441 4.60205 74.0244 3.60107 73.585C2.60824 73.1374 1.85547 72.5229 1.34277 71.7417C0.830078 70.9523 0.57373 70.0571 0.57373 69.0562H4.71191C4.71191 69.6014 4.93164 70.0734 5.37109 70.4722C5.81055 70.8709 6.35173 71.0703 6.99463 71.0703C7.71891 71.0703 8.29671 70.8709 8.72803 70.4722C9.15934 70.0653 9.375 69.5485 9.375 68.9219C9.375 68.0267 9.1512 67.3919 8.70361 67.0176C8.25602 66.6432 7.63753 66.4561 6.84814 66.4561H4.84619V63.3921ZM27.9175 58.4238L21.2769 74H16.9312L23.584 59.4004H15.1123V56.2266H27.9175V58.4238Z" fill="#A8BDC1"/>
</svg>
