<svg width="232" height="128" viewBox="0 0 232 128" fill="none" xmlns="http://www.w3.org/2000/svg">
<rect y="4.79907" width="10" height="10.1402" rx="1" fill="#FF3824"/>
<rect y="16.9673" width="10" height="10.1402" rx="1" fill="#FF3824"/>
<rect y="29.1355" width="10" height="10.1402" rx="1" fill="#439090"/>
<rect y="41.3037" width="10" height="10.1402" rx="1" fill="#439090"/>
<rect y="53.472" width="10" height="10.1402" rx="1" fill="#439090"/>
<rect y="65.6402" width="10" height="10.1402" rx="1" fill="#439090"/>
<rect y="77.8084" width="10" height="10.1402" rx="1" fill="#439090"/>
<rect y="89.9766" width="10" height="10.1402" rx="1" fill="#439090"/>
<rect y="102.145" width="10" height="10.1402" rx="1" fill="#439090"/>
<rect y="114.313" width="10" height="10.1402" rx="1" fill="#439090"/>
<rect x="12" y="4.79907" width="10" height="10.1402" rx="1" fill="#FF3824"/>
<rect x="12" y="16.9673" width="10" height="10.1402" rx="1" fill="#FF3824"/>
<rect x="12" y="29.1355" width="10" height="10.1402" rx="1" fill="#439090"/>
<rect x="12" y="41.3037" width="10" height="10.1402" rx="1" fill="#439090"/>
<rect x="12" y="53.472" width="10" height="10.1402" rx="1" fill="#439090"/>
<rect x="12" y="65.6402" width="10" height="10.1402" rx="1" fill="#439090"/>
<rect x="12" y="77.8084" width="10" height="10.1402" rx="1" fill="#439090"/>
<rect x="12" y="89.9766" width="10" height="10.1402" rx="1" fill="#439090"/>
<rect x="12" y="102.145" width="10" height="10.1402" rx="1" fill="#439090"/>
<rect x="12" y="114.313" width="10" height="10.1402" rx="1" fill="#439090"/>
<rect x="24" y="4.79907" width="10" height="10.1402" rx="1" fill="#FF3824"/>
<rect x="24" y="16.9673" width="10" height="10.1402" rx="1" fill="#439090"/>
<rect x="24" y="29.1355" width="10" height="10.1402" rx="1" fill="#439090"/>
<rect x="24" y="41.3037" width="10" height="10.1402" rx="1" fill="#439090"/>
<rect x="24" y="53.472" width="10" height="10.1402" rx="1" fill="#439090"/>
<rect x="24" y="65.6402" width="10" height="10.1402" rx="1" fill="#439090"/>
<rect x="24" y="77.8084" width="10" height="10.1402" rx="1" fill="#439090"/>
<rect x="24" y="89.9766" width="10" height="10.1402" rx="1" fill="#439090"/>
<rect x="24" y="102.145" width="10" height="10.1402" rx="1" fill="#439090"/>
<rect x="24" y="114.313" width="10" height="10.1402" rx="1" fill="#439090"/>
<rect x="36" y="4.79907" width="10" height="10.1402" rx="1" fill="#439090"/>
<rect x="36" y="16.9673" width="10" height="10.1402" rx="1" fill="#439090"/>
<rect x="36" y="29.1355" width="10" height="10.1402" rx="1" fill="#439090"/>
<rect x="36" y="41.3037" width="10" height="10.1402" rx="1" fill="#439090"/>
<rect x="36" y="53.472" width="10" height="10.1402" rx="1" fill="#439090"/>
<rect x="36" y="65.6402" width="10" height="10.1402" rx="1" fill="#439090"/>
<rect x="36" y="77.8084" width="10" height="10.1402" rx="1" fill="#439090"/>
<rect x="36" y="89.9766" width="10" height="10.1402" rx="1" fill="#439090"/>
<rect x="36" y="102.145" width="10" height="10.1402" rx="1" fill="#439090"/>
<rect x="36" y="114.313" width="10" height="10.1402" rx="1" fill="#439090"/>
<rect x="48" y="4.79907" width="10" height="10.1402" rx="1" fill="#439090"/>
<rect x="48" y="16.9673" width="10" height="10.1402" rx="1" fill="#439090"/>
<rect x="48" y="29.1355" width="10" height="10.1402" rx="1" fill="#439090"/>
<rect x="48" y="41.3037" width="10" height="10.1402" rx="1" fill="#439090"/>
<rect x="48" y="53.472" width="10" height="10.1402" rx="1" fill="#439090"/>
<rect x="48" y="65.6402" width="10" height="10.1402" rx="1" fill="#439090"/>
<rect x="48" y="77.8084" width="10" height="10.1402" rx="1" fill="#439090"/>
<rect x="48" y="89.9766" width="10" height="10.1402" rx="1" fill="#439090"/>
<rect x="48" y="102.145" width="10" height="10.1402" rx="1" fill="#439090"/>
<rect x="48" y="114.313" width="10" height="10.1402" rx="1" fill="#439090"/>
<rect x="60" y="4.79907" width="10" height="10.1402" rx="1" fill="#439090"/>
<rect x="60" y="16.9673" width="10" height="10.1402" rx="1" fill="#439090"/>
<rect x="60" y="29.1355" width="10" height="10.1402" rx="1" fill="#439090"/>
<rect x="60" y="41.3037" width="10" height="10.1402" rx="1" fill="#439090"/>
<rect x="60" y="53.472" width="10" height="10.1402" rx="1" fill="#439090"/>
<rect x="60" y="65.6402" width="10" height="10.1402" rx="1" fill="#439090"/>
<rect x="60" y="77.8084" width="10" height="10.1402" rx="1" fill="#439090"/>
<rect x="60" y="89.9766" width="10" height="10.1402" rx="1" fill="#439090"/>
<rect x="60" y="102.145" width="10" height="10.1402" rx="1" fill="#439090"/>
<rect x="60" y="114.313" width="10" height="10.1402" rx="1" fill="#439090"/>
<rect x="72" y="4.79907" width="10" height="10.1402" rx="1" fill="#439090"/>
<rect x="72" y="16.9673" width="10" height="10.1402" rx="1" fill="#439090"/>
<rect x="72" y="29.1355" width="10" height="10.1402" rx="1" fill="#439090"/>
<rect x="72" y="41.3037" width="10" height="10.1402" rx="1" fill="#439090"/>
<rect x="72" y="53.472" width="10" height="10.1402" rx="1" fill="#439090"/>
<rect x="72" y="65.6402" width="10" height="10.1402" rx="1" fill="#439090"/>
<rect x="72" y="77.8084" width="10" height="10.1402" rx="1" fill="#439090"/>
<rect x="72" y="89.9766" width="10" height="10.1402" rx="1" fill="#439090"/>
<rect x="72" y="102.145" width="10" height="10.1402" rx="1" fill="#439090"/>
<rect x="72" y="114.313" width="10" height="10.1402" rx="1" fill="#439090"/>
<rect x="84" y="4.79907" width="10" height="10.1402" rx="1" fill="#439090"/>
<rect x="84" y="16.9673" width="10" height="10.1402" rx="1" fill="#439090"/>
<rect x="84" y="29.1355" width="10" height="10.1402" rx="1" fill="#439090"/>
<rect x="84" y="41.3037" width="10" height="10.1402" rx="1" fill="#439090"/>
<rect x="84" y="53.472" width="10" height="10.1402" rx="1" fill="#439090"/>
<rect x="84" y="65.6402" width="10" height="10.1402" rx="1" fill="#439090"/>
<rect x="84" y="77.8084" width="10" height="10.1402" rx="1" fill="#439090"/>
<rect x="84" y="89.9766" width="10" height="10.1402" rx="1" fill="#439090"/>
<rect x="84" y="102.145" width="10" height="10.1402" rx="1" fill="#439090"/>
<rect x="84" y="114.313" width="10" height="10.1402" rx="1" fill="#439090"/>
<rect x="96" y="4.79907" width="10" height="10.1402" rx="1" fill="#439090"/>
<rect x="96" y="16.9673" width="10" height="10.1402" rx="1" fill="#439090"/>
<rect x="96" y="29.1355" width="10" height="10.1402" rx="1" fill="#439090"/>
<rect x="96" y="41.3037" width="10" height="10.1402" rx="1" fill="#439090"/>
<rect x="96" y="53.472" width="10" height="10.1402" rx="1" fill="#439090"/>
<rect x="96" y="65.6402" width="10" height="10.1402" rx="1" fill="#439090"/>
<rect x="96" y="77.8084" width="10" height="10.1402" rx="1" fill="#439090"/>
<rect x="96" y="89.9766" width="10" height="10.1402" rx="1" fill="#439090"/>
<rect x="96" y="102.145" width="10" height="10.1402" rx="1" fill="#439090"/>
<rect x="96" y="114.313" width="10" height="10.1402" rx="1" fill="#439090"/>
<rect x="108" y="4.79907" width="10" height="10.1402" rx="1" fill="#439090"/>
<rect x="108" y="16.9673" width="10" height="10.1402" rx="1" fill="#439090"/>
<rect x="108" y="29.1355" width="10" height="10.1402" rx="1" fill="#439090"/>
<rect x="108" y="41.3037" width="10" height="10.1402" rx="1" fill="#439090"/>
<rect x="108" y="53.472" width="10" height="10.1402" rx="1" fill="#439090"/>
<rect x="108" y="65.6402" width="10" height="10.1402" rx="1" fill="#439090"/>
<rect x="108" y="77.8084" width="10" height="10.1402" rx="1" fill="#439090"/>
<rect x="108" y="89.9766" width="10" height="10.1402" rx="1" fill="#439090"/>
<rect x="108" y="102.145" width="10" height="10.1402" rx="1" fill="#439090"/>
<rect x="108" y="114.313" width="10" height="10.1402" rx="1" fill="#439090"/>
<path d="M125.699 108.009H125.943C126.757 108.009 127.489 107.919 128.14 107.74C128.791 107.561 129.349 107.285 129.812 106.91C130.276 106.528 130.63 106.036 130.875 105.433C131.127 104.823 131.253 104.086 131.253 103.224V99.5495C131.253 98.9799 131.204 98.4875 131.106 98.0725C131.009 97.6493 130.866 97.2994 130.679 97.0227C130.492 96.746 130.268 96.5425 130.008 96.4123C129.747 96.274 129.454 96.2048 129.129 96.2048C128.803 96.2048 128.514 96.2984 128.262 96.4855C128.018 96.6646 127.806 96.9087 127.627 97.218C127.457 97.5191 127.326 97.8609 127.237 98.2434C127.147 98.6177 127.103 98.9961 127.103 99.3786C127.103 99.8099 127.147 100.213 127.237 100.587C127.334 100.953 127.473 101.275 127.652 101.551C127.839 101.82 128.071 102.032 128.348 102.186C128.632 102.341 128.962 102.418 129.336 102.418C129.711 102.418 130.032 102.353 130.301 102.223C130.577 102.085 130.805 101.905 130.984 101.686C131.163 101.458 131.294 101.214 131.375 100.953C131.465 100.693 131.505 100.437 131.497 100.184L132.693 101.124C132.693 101.645 132.575 102.158 132.339 102.662C132.103 103.167 131.778 103.627 131.363 104.042C130.948 104.449 130.468 104.774 129.922 105.018C129.385 105.262 128.816 105.384 128.213 105.384C127.408 105.384 126.679 105.242 126.028 104.957C125.385 104.672 124.836 104.265 124.38 103.737C123.925 103.208 123.575 102.577 123.331 101.844C123.095 101.104 122.977 100.282 122.977 99.3786C122.977 98.5078 123.127 97.69 123.428 96.925C123.729 96.16 124.157 95.4886 124.71 94.9108C125.263 94.3249 125.918 93.8651 126.675 93.5314C127.432 93.1978 128.262 93.031 129.166 93.031C130.02 93.031 130.822 93.1937 131.57 93.5192C132.319 93.8366 132.978 94.3046 133.548 94.923C134.118 95.5415 134.565 96.3024 134.891 97.2058C135.216 98.1091 135.379 99.1426 135.379 100.306V101.722C135.379 102.984 135.224 104.123 134.915 105.14C134.606 106.158 134.166 107.053 133.597 107.826C133.027 108.591 132.352 109.234 131.57 109.755C130.797 110.267 129.939 110.654 128.995 110.914C128.059 111.175 127.066 111.305 126.016 111.305H125.699V108.009ZM141.116 103.138L137.845 102.369L138.919 93.2873H149.307V96.4855H142.276L141.873 100.013C142.068 99.8994 142.398 99.7652 142.862 99.6105C143.334 99.4478 143.855 99.3664 144.424 99.3664C145.303 99.3664 146.08 99.5007 146.756 99.7692C147.439 100.03 148.017 100.416 148.489 100.929C148.961 101.433 149.315 102.056 149.551 102.797C149.795 103.537 149.917 104.383 149.917 105.336C149.917 106.101 149.791 106.841 149.539 107.557C149.295 108.265 148.917 108.904 148.404 109.474C147.899 110.035 147.26 110.483 146.487 110.817C145.714 111.142 144.799 111.305 143.741 111.305C142.951 111.305 142.182 111.183 141.434 110.939C140.685 110.695 140.009 110.345 139.407 109.889C138.813 109.425 138.341 108.868 137.991 108.217C137.649 107.557 137.483 106.821 137.491 106.007H141.629C141.653 106.438 141.755 106.813 141.934 107.13C142.113 107.447 142.353 107.696 142.654 107.875C142.964 108.046 143.318 108.131 143.716 108.131C144.123 108.131 144.461 108.05 144.729 107.887C144.998 107.724 145.21 107.5 145.364 107.216C145.519 106.931 145.629 106.605 145.694 106.239C145.759 105.865 145.792 105.47 145.792 105.055C145.792 104.615 145.743 104.221 145.645 103.871C145.556 103.521 145.409 103.224 145.206 102.98C145.002 102.727 144.738 102.536 144.412 102.406C144.095 102.276 143.712 102.211 143.265 102.211C142.671 102.211 142.203 102.312 141.861 102.516C141.519 102.719 141.271 102.927 141.116 103.138ZM152.115 97.6452V96.7053C152.115 96.0298 152.261 95.4154 152.554 94.862C152.847 94.3086 153.287 93.8651 153.873 93.5314C154.458 93.1978 155.187 93.031 156.058 93.031C156.953 93.031 157.693 93.1978 158.279 93.5314C158.865 93.8651 159.301 94.3086 159.585 94.862C159.878 95.4154 160.025 96.0298 160.025 96.7053V97.6452C160.025 98.3044 159.878 98.9107 159.585 99.4641C159.301 100.017 158.865 100.461 158.279 100.795C157.701 101.128 156.973 101.295 156.094 101.295C155.207 101.295 154.471 101.128 153.885 100.795C153.299 100.461 152.855 100.017 152.554 99.4641C152.261 98.9107 152.115 98.3044 152.115 97.6452ZM154.751 96.7053V97.6452C154.751 97.8894 154.8 98.1213 154.898 98.341C154.996 98.5607 155.142 98.7398 155.337 98.8781C155.541 99.0083 155.789 99.0734 156.082 99.0734C156.383 99.0734 156.627 99.0083 156.814 98.8781C157.002 98.7398 157.14 98.5607 157.229 98.341C157.327 98.1213 157.376 97.8894 157.376 97.6452V96.7053C157.376 96.4449 157.327 96.2048 157.229 95.9851C157.14 95.7653 156.998 95.5904 156.802 95.4602C156.607 95.3218 156.359 95.2526 156.058 95.2526C155.773 95.2526 155.533 95.3218 155.337 95.4602C155.142 95.5904 154.996 95.7653 154.898 95.9851C154.8 96.2048 154.751 96.4449 154.751 96.7053ZM160.55 107.643V106.703C160.55 106.036 160.696 105.425 160.989 104.872C161.29 104.318 161.734 103.875 162.32 103.541C162.914 103.208 163.646 103.041 164.517 103.041C165.412 103.041 166.149 103.208 166.727 103.541C167.312 103.875 167.748 104.318 168.033 104.872C168.326 105.425 168.472 106.036 168.472 106.703V107.643C168.472 108.31 168.326 108.92 168.033 109.474C167.748 110.027 167.317 110.471 166.739 110.804C166.161 111.138 165.433 111.305 164.554 111.305C163.667 111.305 162.926 111.138 162.332 110.804C161.738 110.471 161.29 110.027 160.989 109.474C160.696 108.92 160.55 108.31 160.55 107.643ZM163.199 106.703V107.643C163.199 107.895 163.26 108.131 163.382 108.351C163.504 108.571 163.667 108.75 163.87 108.888C164.074 109.018 164.297 109.083 164.542 109.083C164.916 109.083 165.193 109.018 165.372 108.888C165.559 108.75 165.681 108.571 165.738 108.351C165.803 108.131 165.835 107.895 165.835 107.643V106.703C165.835 106.451 165.787 106.215 165.689 105.995C165.591 105.775 165.445 105.6 165.25 105.47C165.054 105.332 164.81 105.262 164.517 105.262C164.224 105.262 163.98 105.332 163.785 105.47C163.589 105.6 163.443 105.775 163.345 105.995C163.248 106.215 163.199 106.451 163.199 106.703ZM165.542 95.8386L156.863 109.73L154.947 108.766L163.626 94.8742L165.542 95.8386ZM124.291 120.262H125.064C125.443 120.262 125.756 120.199 126.002 120.074C126.252 119.946 126.438 119.772 126.559 119.553C126.684 119.33 126.746 119.08 126.746 118.803C126.746 118.475 126.691 118.199 126.582 117.977C126.473 117.754 126.309 117.586 126.09 117.473C125.871 117.36 125.594 117.303 125.258 117.303C124.953 117.303 124.684 117.363 124.449 117.485C124.219 117.602 124.037 117.77 123.904 117.988C123.775 118.207 123.711 118.465 123.711 118.762H122.627C122.627 118.328 122.736 117.934 122.955 117.578C123.174 117.223 123.48 116.94 123.875 116.729C124.273 116.518 124.734 116.412 125.258 116.412C125.773 116.412 126.225 116.504 126.611 116.688C126.998 116.867 127.299 117.137 127.514 117.496C127.729 117.852 127.836 118.295 127.836 118.826C127.836 119.041 127.785 119.272 127.684 119.518C127.586 119.76 127.432 119.987 127.221 120.197C127.014 120.408 126.744 120.582 126.412 120.719C126.08 120.852 125.682 120.918 125.217 120.918H124.291V120.262ZM124.291 121.153V120.502H125.217C125.76 120.502 126.209 120.567 126.564 120.696C126.92 120.824 127.199 120.996 127.402 121.211C127.609 121.426 127.754 121.662 127.836 121.92C127.922 122.174 127.965 122.428 127.965 122.682C127.965 123.08 127.896 123.434 127.76 123.742C127.627 124.051 127.438 124.313 127.191 124.528C126.949 124.742 126.664 124.904 126.336 125.014C126.008 125.123 125.65 125.178 125.264 125.178C124.893 125.178 124.543 125.125 124.215 125.02C123.891 124.914 123.604 124.762 123.354 124.563C123.104 124.36 122.908 124.112 122.768 123.819C122.627 123.522 122.557 123.184 122.557 122.805H123.641C123.641 123.102 123.705 123.362 123.834 123.584C123.967 123.807 124.154 123.981 124.396 124.106C124.643 124.227 124.932 124.287 125.264 124.287C125.596 124.287 125.881 124.231 126.119 124.117C126.361 124 126.547 123.824 126.676 123.59C126.809 123.356 126.875 123.061 126.875 122.705C126.875 122.35 126.801 122.059 126.652 121.832C126.504 121.602 126.293 121.432 126.02 121.322C125.75 121.209 125.432 121.153 125.064 121.153H124.291ZM130.83 121L129.963 120.778L130.391 116.529H134.768V117.531H131.311L131.053 119.852C131.209 119.762 131.406 119.678 131.645 119.6C131.887 119.522 132.164 119.483 132.477 119.483C132.871 119.483 133.225 119.551 133.537 119.688C133.85 119.821 134.115 120.012 134.334 120.262C134.557 120.512 134.727 120.813 134.844 121.164C134.961 121.516 135.02 121.908 135.02 122.342C135.02 122.752 134.963 123.129 134.85 123.473C134.74 123.817 134.574 124.117 134.352 124.375C134.129 124.629 133.848 124.826 133.508 124.967C133.172 125.108 132.775 125.178 132.318 125.178C131.975 125.178 131.648 125.131 131.34 125.037C131.035 124.94 130.762 124.793 130.52 124.598C130.281 124.399 130.086 124.153 129.934 123.86C129.785 123.563 129.691 123.215 129.652 122.817H130.684C130.73 123.137 130.824 123.406 130.965 123.625C131.105 123.844 131.289 124.01 131.516 124.123C131.746 124.233 132.014 124.287 132.318 124.287C132.576 124.287 132.805 124.242 133.004 124.153C133.203 124.063 133.371 123.934 133.508 123.766C133.645 123.598 133.748 123.395 133.818 123.156C133.893 122.918 133.93 122.651 133.93 122.354C133.93 122.084 133.893 121.834 133.818 121.604C133.744 121.373 133.633 121.172 133.484 121C133.34 120.828 133.162 120.696 132.951 120.602C132.74 120.504 132.498 120.455 132.225 120.455C131.861 120.455 131.586 120.504 131.398 120.602C131.215 120.699 131.025 120.832 130.83 121ZM141.559 120.988V121.879H138.699V120.988H141.559ZM152.064 120.813V123.936C151.959 124.092 151.791 124.268 151.561 124.463C151.33 124.654 151.012 124.822 150.605 124.967C150.203 125.108 149.684 125.178 149.047 125.178C148.527 125.178 148.049 125.088 147.611 124.908C147.178 124.725 146.801 124.459 146.48 124.112C146.164 123.76 145.918 123.334 145.742 122.834C145.57 122.33 145.484 121.76 145.484 121.123V120.461C145.484 119.824 145.559 119.256 145.707 118.756C145.859 118.256 146.082 117.832 146.375 117.485C146.668 117.133 147.027 116.867 147.453 116.688C147.879 116.504 148.367 116.412 148.918 116.412C149.57 116.412 150.115 116.526 150.553 116.752C150.994 116.975 151.338 117.283 151.584 117.678C151.834 118.072 151.994 118.522 152.064 119.026H150.934C150.883 118.717 150.781 118.436 150.629 118.182C150.48 117.928 150.268 117.725 149.99 117.572C149.713 117.416 149.355 117.338 148.918 117.338C148.523 117.338 148.182 117.41 147.893 117.555C147.604 117.699 147.365 117.906 147.178 118.176C146.99 118.446 146.85 118.772 146.756 119.154C146.666 119.537 146.621 119.969 146.621 120.449V121.123C146.621 121.615 146.678 122.055 146.791 122.442C146.908 122.828 147.074 123.158 147.289 123.432C147.504 123.701 147.76 123.906 148.057 124.047C148.357 124.188 148.689 124.258 149.053 124.258C149.455 124.258 149.781 124.225 150.031 124.158C150.281 124.088 150.477 124.006 150.617 123.912C150.758 123.815 150.865 123.723 150.939 123.637V121.727H148.965V120.813H152.064ZM153.488 121.961V121.826C153.488 121.369 153.555 120.946 153.688 120.555C153.82 120.16 154.012 119.819 154.262 119.529C154.512 119.237 154.814 119.01 155.17 118.85C155.525 118.686 155.924 118.604 156.365 118.604C156.811 118.604 157.211 118.686 157.566 118.85C157.926 119.01 158.23 119.237 158.48 119.529C158.734 119.819 158.928 120.16 159.061 120.555C159.193 120.946 159.26 121.369 159.26 121.826V121.961C159.26 122.418 159.193 122.842 159.061 123.233C158.928 123.623 158.734 123.965 158.48 124.258C158.23 124.547 157.928 124.774 157.572 124.938C157.221 125.098 156.822 125.178 156.377 125.178C155.932 125.178 155.531 125.098 155.176 124.938C154.82 124.774 154.516 124.547 154.262 124.258C154.012 123.965 153.82 123.623 153.688 123.233C153.555 122.842 153.488 122.418 153.488 121.961ZM154.572 121.826V121.961C154.572 122.278 154.609 122.576 154.684 122.858C154.758 123.135 154.869 123.381 155.018 123.596C155.17 123.811 155.359 123.981 155.586 124.106C155.812 124.227 156.076 124.287 156.377 124.287C156.674 124.287 156.934 124.227 157.156 124.106C157.383 123.981 157.57 123.811 157.719 123.596C157.867 123.381 157.979 123.135 158.053 122.858C158.131 122.576 158.17 122.278 158.17 121.961V121.826C158.17 121.514 158.131 121.219 158.053 120.942C157.979 120.66 157.865 120.412 157.713 120.197C157.564 119.979 157.377 119.807 157.15 119.682C156.928 119.557 156.666 119.494 156.365 119.494C156.068 119.494 155.807 119.557 155.58 119.682C155.357 119.807 155.17 119.979 155.018 120.197C154.869 120.412 154.758 120.66 154.684 120.942C154.609 121.219 154.572 121.514 154.572 121.826ZM160.332 121.961V121.826C160.332 121.369 160.398 120.946 160.531 120.555C160.664 120.16 160.855 119.819 161.105 119.529C161.355 119.237 161.658 119.01 162.014 118.85C162.369 118.686 162.768 118.604 163.209 118.604C163.654 118.604 164.055 118.686 164.41 118.85C164.77 119.01 165.074 119.237 165.324 119.529C165.578 119.819 165.771 120.16 165.904 120.555C166.037 120.946 166.104 121.369 166.104 121.826V121.961C166.104 122.418 166.037 122.842 165.904 123.233C165.771 123.623 165.578 123.965 165.324 124.258C165.074 124.547 164.771 124.774 164.416 124.938C164.064 125.098 163.666 125.178 163.221 125.178C162.775 125.178 162.375 125.098 162.02 124.938C161.664 124.774 161.359 124.547 161.105 124.258C160.855 123.965 160.664 123.623 160.531 123.233C160.398 122.842 160.332 122.418 160.332 121.961ZM161.416 121.826V121.961C161.416 122.278 161.453 122.576 161.527 122.858C161.602 123.135 161.713 123.381 161.861 123.596C162.014 123.811 162.203 123.981 162.43 124.106C162.656 124.227 162.92 124.287 163.221 124.287C163.518 124.287 163.777 124.227 164 124.106C164.227 123.981 164.414 123.811 164.562 123.596C164.711 123.381 164.822 123.135 164.896 122.858C164.975 122.576 165.014 122.278 165.014 121.961V121.826C165.014 121.514 164.975 121.219 164.896 120.942C164.822 120.66 164.709 120.412 164.557 120.197C164.408 119.979 164.221 119.807 163.994 119.682C163.771 119.557 163.51 119.494 163.209 119.494C162.912 119.494 162.65 119.557 162.424 119.682C162.201 119.807 162.014 119.979 161.861 120.197C161.713 120.412 161.602 120.66 161.527 120.942C161.453 121.219 161.416 121.514 161.416 121.826ZM171.459 123.83V116.061H172.549V125.061H171.553L171.459 123.83ZM167.193 121.961V121.838C167.193 121.354 167.252 120.914 167.369 120.52C167.49 120.121 167.66 119.779 167.879 119.494C168.102 119.209 168.365 118.99 168.67 118.838C168.979 118.682 169.322 118.604 169.701 118.604C170.1 118.604 170.447 118.674 170.744 118.815C171.045 118.951 171.299 119.153 171.506 119.418C171.717 119.68 171.883 119.996 172.004 120.367C172.125 120.738 172.209 121.158 172.256 121.627V122.166C172.213 122.631 172.129 123.049 172.004 123.42C171.883 123.791 171.717 124.108 171.506 124.369C171.299 124.631 171.045 124.832 170.744 124.973C170.443 125.11 170.092 125.178 169.689 125.178C169.318 125.178 168.979 125.098 168.67 124.938C168.365 124.778 168.102 124.553 167.879 124.264C167.66 123.975 167.49 123.635 167.369 123.244C167.252 122.85 167.193 122.422 167.193 121.961ZM168.283 121.838V121.961C168.283 122.278 168.314 122.574 168.377 122.852C168.443 123.129 168.545 123.373 168.682 123.584C168.818 123.795 168.992 123.961 169.203 124.082C169.414 124.199 169.666 124.258 169.959 124.258C170.318 124.258 170.613 124.182 170.844 124.029C171.078 123.877 171.266 123.676 171.406 123.426C171.547 123.176 171.656 122.904 171.734 122.612V121.199C171.688 120.985 171.619 120.778 171.529 120.578C171.443 120.375 171.33 120.196 171.189 120.039C171.053 119.879 170.883 119.752 170.68 119.658C170.48 119.565 170.244 119.518 169.971 119.518C169.674 119.518 169.418 119.58 169.203 119.705C168.992 119.826 168.818 119.994 168.682 120.209C168.545 120.42 168.443 120.666 168.377 120.947C168.314 121.225 168.283 121.522 168.283 121.838Z" fill="#439090"/>
<path d="M128.614 15.0776L125.343 14.3086L126.417 5.22656H136.805V8.4248H129.774L129.371 11.9526C129.566 11.8387 129.896 11.7044 130.36 11.5498C130.832 11.387 131.353 11.3057 131.922 11.3057C132.801 11.3057 133.578 11.4399 134.254 11.7085C134.938 11.9689 135.515 12.3555 135.987 12.8682C136.459 13.3727 136.813 13.9953 137.049 14.7358C137.293 15.4764 137.416 16.3228 137.416 17.2749C137.416 18.0399 137.289 18.7804 137.037 19.4966C136.793 20.2046 136.415 20.8434 135.902 21.4131C135.397 21.9746 134.758 22.4222 133.985 22.7559C133.212 23.0814 132.297 23.2441 131.239 23.2441C130.449 23.2441 129.68 23.1221 128.932 22.8779C128.183 22.6338 127.507 22.2839 126.905 21.8281C126.311 21.3643 125.839 20.8068 125.489 20.1558C125.147 19.4966 124.981 18.7601 124.989 17.9463H129.127C129.151 18.3776 129.253 18.752 129.432 19.0693C129.611 19.3867 129.851 19.6349 130.152 19.814C130.462 19.9849 130.816 20.0703 131.214 20.0703C131.621 20.0703 131.959 19.9889 132.228 19.8262C132.496 19.6634 132.708 19.4396 132.862 19.1548C133.017 18.87 133.127 18.5444 133.192 18.1782C133.257 17.8039 133.29 17.4092 133.29 16.9941C133.29 16.5547 133.241 16.16 133.143 15.8101C133.054 15.4601 132.907 15.1631 132.704 14.9189C132.5 14.6667 132.236 14.4754 131.91 14.3452C131.593 14.215 131.21 14.1499 130.763 14.1499C130.169 14.1499 129.701 14.2516 129.359 14.4551C129.017 14.6585 128.769 14.866 128.614 15.0776ZM139.613 9.58447V8.64453C139.613 7.96908 139.759 7.35465 140.052 6.80127C140.345 6.24788 140.785 5.80436 141.371 5.4707C141.957 5.13704 142.685 4.97021 143.556 4.97021C144.451 4.97021 145.191 5.13704 145.777 5.4707C146.363 5.80436 146.799 6.24788 147.083 6.80127C147.376 7.35465 147.523 7.96908 147.523 8.64453V9.58447C147.523 10.2437 147.376 10.8499 147.083 11.4033C146.799 11.9567 146.363 12.4002 145.777 12.7339C145.2 13.0675 144.471 13.2344 143.592 13.2344C142.705 13.2344 141.969 13.0675 141.383 12.7339C140.797 12.4002 140.353 11.9567 140.052 11.4033C139.759 10.8499 139.613 10.2437 139.613 9.58447ZM142.25 8.64453V9.58447C142.25 9.82861 142.298 10.0605 142.396 10.2803C142.494 10.5 142.64 10.679 142.835 10.8174C143.039 10.9476 143.287 11.0127 143.58 11.0127C143.881 11.0127 144.125 10.9476 144.312 10.8174C144.5 10.679 144.638 10.5 144.728 10.2803C144.825 10.0605 144.874 9.82861 144.874 9.58447V8.64453C144.874 8.38411 144.825 8.14404 144.728 7.92432C144.638 7.70459 144.496 7.52962 144.3 7.39941C144.105 7.26107 143.857 7.19189 143.556 7.19189C143.271 7.19189 143.031 7.26107 142.835 7.39941C142.64 7.52962 142.494 7.70459 142.396 7.92432C142.298 8.14404 142.25 8.38411 142.25 8.64453ZM148.048 19.582V18.6421C148.048 17.9748 148.194 17.3644 148.487 16.811C148.788 16.2576 149.232 15.8141 149.818 15.4805C150.412 15.1468 151.144 14.98 152.015 14.98C152.91 14.98 153.647 15.1468 154.225 15.4805C154.811 15.8141 155.246 16.2576 155.531 16.811C155.824 17.3644 155.97 17.9748 155.97 18.6421V19.582C155.97 20.2493 155.824 20.8597 155.531 21.4131C155.246 21.9665 154.815 22.41 154.237 22.7437C153.659 23.0773 152.931 23.2441 152.052 23.2441C151.165 23.2441 150.424 23.0773 149.83 22.7437C149.236 22.41 148.788 21.9665 148.487 21.4131C148.194 20.8597 148.048 20.2493 148.048 19.582ZM150.697 18.6421V19.582C150.697 19.8343 150.758 20.0703 150.88 20.29C151.002 20.5098 151.165 20.6888 151.368 20.8271C151.572 20.9574 151.795 21.0225 152.04 21.0225C152.414 21.0225 152.691 20.9574 152.87 20.8271C153.057 20.6888 153.179 20.5098 153.236 20.29C153.301 20.0703 153.333 19.8343 153.333 19.582V18.6421C153.333 18.3898 153.285 18.1538 153.187 17.9341C153.089 17.7144 152.943 17.5394 152.748 17.4092C152.552 17.2708 152.308 17.2017 152.015 17.2017C151.722 17.2017 151.478 17.2708 151.283 17.4092C151.087 17.5394 150.941 17.7144 150.843 17.9341C150.746 18.1538 150.697 18.3898 150.697 18.6421ZM153.041 7.77783L144.361 21.6694L142.445 20.7051L151.124 6.81348L153.041 7.77783ZM130.299 36.1094V37H124.715V36.2207L127.51 33.1094C127.854 32.7266 128.119 32.4023 128.307 32.1367C128.498 31.8672 128.631 31.627 128.705 31.416C128.783 31.2012 128.822 30.9824 128.822 30.7598C128.822 30.4785 128.764 30.2246 128.646 29.998C128.533 29.7676 128.365 29.584 128.143 29.4473C127.92 29.3105 127.65 29.2422 127.334 29.2422C126.955 29.2422 126.639 29.3164 126.385 29.4648C126.135 29.6094 125.947 29.8125 125.822 30.0742C125.697 30.3359 125.635 30.6367 125.635 30.9766H124.551C124.551 30.4961 124.656 30.0566 124.867 29.6582C125.078 29.2598 125.391 28.9434 125.805 28.709C126.219 28.4707 126.729 28.3516 127.334 28.3516C127.873 28.3516 128.334 28.4473 128.717 28.6387C129.1 28.8262 129.393 29.0918 129.596 29.4355C129.803 29.7754 129.906 30.1738 129.906 30.6309C129.906 30.8809 129.863 31.1348 129.777 31.3926C129.695 31.6465 129.58 31.9004 129.432 32.1543C129.287 32.4082 129.117 32.6582 128.922 32.9043C128.73 33.1504 128.525 33.3926 128.307 33.6309L126.021 36.1094H130.299ZM136.809 32.9277V33.8184H133.949V32.9277H136.809ZM147.578 32.4648V33.0039C147.578 33.6445 147.498 34.2188 147.338 34.7266C147.178 35.2344 146.947 35.666 146.646 36.0215C146.346 36.377 145.984 36.6484 145.562 36.8359C145.145 37.0234 144.676 37.1172 144.156 37.1172C143.652 37.1172 143.189 37.0234 142.768 36.8359C142.35 36.6484 141.986 36.377 141.678 36.0215C141.373 35.666 141.137 35.2344 140.969 34.7266C140.801 34.2188 140.717 33.6445 140.717 33.0039V32.4648C140.717 31.8242 140.799 31.252 140.963 30.748C141.131 30.2402 141.367 29.8086 141.672 29.4531C141.977 29.0938 142.338 28.8203 142.756 28.6328C143.178 28.4453 143.641 28.3516 144.145 28.3516C144.664 28.3516 145.133 28.4453 145.551 28.6328C145.973 28.8203 146.334 29.0938 146.635 29.4531C146.939 29.8086 147.172 30.2402 147.332 30.748C147.496 31.252 147.578 31.8242 147.578 32.4648ZM146.459 33.0039V32.4531C146.459 31.9453 146.406 31.4961 146.301 31.1055C146.199 30.7148 146.049 30.3867 145.85 30.1211C145.65 29.8555 145.406 29.6543 145.117 29.5176C144.832 29.3809 144.508 29.3125 144.145 29.3125C143.793 29.3125 143.475 29.3809 143.189 29.5176C142.908 29.6543 142.666 29.8555 142.463 30.1211C142.264 30.3867 142.109 30.7148 142 31.1055C141.891 31.4961 141.836 31.9453 141.836 32.4531V33.0039C141.836 33.5156 141.891 33.9688 142 34.3633C142.109 34.7539 142.266 35.084 142.469 35.3535C142.676 35.6191 142.92 35.8203 143.201 35.957C143.486 36.0938 143.805 36.1621 144.156 36.1621C144.523 36.1621 144.85 36.0938 145.135 35.957C145.42 35.8203 145.66 35.6191 145.855 35.3535C146.055 35.084 146.205 34.7539 146.307 34.3633C146.408 33.9688 146.459 33.5156 146.459 33.0039ZM152.986 35.5352V30.6602H154.076V37H153.039L152.986 35.5352ZM153.191 34.1992L153.643 34.1875C153.643 34.6094 153.598 35 153.508 35.3594C153.422 35.7148 153.281 36.0234 153.086 36.2852C152.891 36.5469 152.635 36.752 152.318 36.9004C152.002 37.0449 151.617 37.1172 151.164 37.1172C150.855 37.1172 150.572 37.0723 150.314 36.9824C150.061 36.8926 149.842 36.7539 149.658 36.5664C149.475 36.3789 149.332 36.1348 149.23 35.834C149.133 35.5332 149.084 35.1719 149.084 34.75V30.6602H150.168V34.7617C150.168 35.0469 150.199 35.2832 150.262 35.4707C150.328 35.6543 150.416 35.8008 150.525 35.9102C150.639 36.0156 150.764 36.0898 150.9 36.1328C151.041 36.1758 151.186 36.1973 151.334 36.1973C151.795 36.1973 152.16 36.1094 152.43 35.9336C152.699 35.7539 152.893 35.5137 153.01 35.2129C153.131 34.9082 153.191 34.5703 153.191 34.1992ZM158.383 30.6602V31.4922H154.955V30.6602H158.383ZM156.115 29.1191H157.199V35.4297C157.199 35.6445 157.232 35.8066 157.299 35.916C157.365 36.0254 157.451 36.0977 157.557 36.1328C157.662 36.168 157.775 36.1855 157.896 36.1855C157.986 36.1855 158.08 36.1777 158.178 36.1621C158.279 36.1426 158.355 36.127 158.406 36.1152L158.412 37C158.326 37.0273 158.213 37.0527 158.072 37.0762C157.936 37.1035 157.77 37.1172 157.574 37.1172C157.309 37.1172 157.064 37.0645 156.842 36.959C156.619 36.8535 156.441 36.6777 156.309 36.4316C156.18 36.1816 156.115 35.8457 156.115 35.4238V29.1191ZM163.346 35.3184C163.346 35.1621 163.311 35.0176 163.24 34.8848C163.174 34.748 163.035 34.625 162.824 34.5156C162.617 34.4023 162.305 34.3047 161.887 34.2227C161.535 34.1484 161.217 34.0605 160.932 33.959C160.65 33.8574 160.41 33.7344 160.211 33.5898C160.016 33.4453 159.865 33.2754 159.76 33.0801C159.654 32.8848 159.602 32.6562 159.602 32.3945C159.602 32.1445 159.656 31.9082 159.766 31.6855C159.879 31.4629 160.037 31.2656 160.24 31.0938C160.447 30.9219 160.695 30.7871 160.984 30.6895C161.273 30.5918 161.596 30.543 161.951 30.543C162.459 30.543 162.893 30.6328 163.252 30.8125C163.611 30.9922 163.887 31.2324 164.078 31.5332C164.27 31.8301 164.365 32.1602 164.365 32.5234H163.281C163.281 32.3477 163.229 32.1777 163.123 32.0137C163.021 31.8457 162.871 31.707 162.672 31.5977C162.477 31.4883 162.236 31.4336 161.951 31.4336C161.65 31.4336 161.406 31.4805 161.219 31.5742C161.035 31.6641 160.9 31.7793 160.814 31.9199C160.732 32.0605 160.691 32.209 160.691 32.3652C160.691 32.4824 160.711 32.5879 160.75 32.6816C160.793 32.7715 160.867 32.8555 160.973 32.9336C161.078 33.0078 161.227 33.0781 161.418 33.1445C161.609 33.2109 161.854 33.2773 162.15 33.3438C162.67 33.4609 163.098 33.6016 163.434 33.7656C163.77 33.9297 164.02 34.1309 164.184 34.3691C164.348 34.6074 164.43 34.8965 164.43 35.2363C164.43 35.5137 164.371 35.7676 164.254 35.998C164.141 36.2285 163.975 36.4277 163.756 36.5957C163.541 36.7598 163.283 36.8887 162.982 36.9824C162.686 37.0723 162.352 37.1172 161.98 37.1172C161.422 37.1172 160.949 37.0176 160.562 36.8184C160.176 36.6191 159.883 36.3613 159.684 36.0449C159.484 35.7285 159.385 35.3945 159.385 35.043H160.475C160.49 35.3398 160.576 35.5762 160.732 35.752C160.889 35.9238 161.08 36.0469 161.307 36.1211C161.533 36.1914 161.758 36.2266 161.98 36.2266C162.277 36.2266 162.525 36.1875 162.725 36.1094C162.928 36.0312 163.082 35.9238 163.188 35.7871C163.293 35.6504 163.346 35.4941 163.346 35.3184ZM167.031 30.6602V37H165.941V30.6602H167.031ZM165.859 28.9785C165.859 28.8027 165.912 28.6543 166.018 28.5332C166.127 28.4121 166.287 28.3516 166.498 28.3516C166.705 28.3516 166.863 28.4121 166.973 28.5332C167.086 28.6543 167.143 28.8027 167.143 28.9785C167.143 29.1465 167.086 29.291 166.973 29.4121C166.863 29.5293 166.705 29.5879 166.498 29.5879C166.287 29.5879 166.127 29.5293 166.018 29.4121C165.912 29.291 165.859 29.1465 165.859 28.9785ZM172.768 35.7695V28H173.857V37H172.861L172.768 35.7695ZM168.502 33.9004V33.7773C168.502 33.293 168.561 32.8535 168.678 32.459C168.799 32.0605 168.969 31.7188 169.188 31.4336C169.41 31.1484 169.674 30.9297 169.979 30.7773C170.287 30.6211 170.631 30.543 171.01 30.543C171.408 30.543 171.756 30.6133 172.053 30.7539C172.354 30.8906 172.607 31.0918 172.814 31.3574C173.025 31.6191 173.191 31.9355 173.312 32.3066C173.434 32.6777 173.518 33.0977 173.564 33.5664V34.1055C173.521 34.5703 173.438 34.9883 173.312 35.3594C173.191 35.7305 173.025 36.0469 172.814 36.3086C172.607 36.5703 172.354 36.7715 172.053 36.9121C171.752 37.0488 171.4 37.1172 170.998 37.1172C170.627 37.1172 170.287 37.0371 169.979 36.877C169.674 36.7168 169.41 36.4922 169.188 36.2031C168.969 35.9141 168.799 35.5742 168.678 35.1836C168.561 34.7891 168.502 34.3613 168.502 33.9004ZM169.592 33.7773V33.9004C169.592 34.2168 169.623 34.5137 169.686 34.791C169.752 35.0684 169.854 35.3125 169.99 35.5234C170.127 35.7344 170.301 35.9004 170.512 36.0215C170.723 36.1387 170.975 36.1973 171.268 36.1973C171.627 36.1973 171.922 36.1211 172.152 35.9688C172.387 35.8164 172.574 35.6152 172.715 35.3652C172.855 35.1152 172.965 34.8438 173.043 34.5508V33.1387C172.996 32.9238 172.928 32.7168 172.838 32.5176C172.752 32.3145 172.639 32.1348 172.498 31.9785C172.361 31.8184 172.191 31.6914 171.988 31.5977C171.789 31.5039 171.553 31.457 171.279 31.457C170.982 31.457 170.727 31.5195 170.512 31.6445C170.301 31.7656 170.127 31.9336 169.99 32.1484C169.854 32.3594 169.752 32.6055 169.686 32.8867C169.623 33.1641 169.592 33.4609 169.592 33.7773ZM178.176 37.1172C177.734 37.1172 177.334 37.043 176.975 36.8945C176.619 36.7422 176.312 36.5293 176.055 36.2559C175.801 35.9824 175.605 35.6582 175.469 35.2832C175.332 34.9082 175.264 34.498 175.264 34.0527V33.8066C175.264 33.291 175.34 32.832 175.492 32.4297C175.645 32.0234 175.852 31.6797 176.113 31.3984C176.375 31.1172 176.672 30.9043 177.004 30.7598C177.336 30.6152 177.68 30.543 178.035 30.543C178.488 30.543 178.879 30.6211 179.207 30.7773C179.539 30.9336 179.811 31.1523 180.021 31.4336C180.232 31.7109 180.389 32.0391 180.49 32.418C180.592 32.793 180.643 33.2031 180.643 33.6484V34.1348H175.908V33.25H179.559V33.168C179.543 32.8867 179.484 32.6133 179.383 32.3477C179.285 32.082 179.129 31.8633 178.914 31.6914C178.699 31.5195 178.406 31.4336 178.035 31.4336C177.789 31.4336 177.562 31.4863 177.355 31.5918C177.148 31.6934 176.971 31.8457 176.822 32.0488C176.674 32.252 176.559 32.5 176.477 32.793C176.395 33.0859 176.354 33.4238 176.354 33.8066V34.0527C176.354 34.3535 176.395 34.6367 176.477 34.9023C176.562 35.1641 176.686 35.3945 176.846 35.5938C177.01 35.793 177.207 35.9492 177.438 36.0625C177.672 36.1758 177.938 36.2324 178.234 36.2324C178.617 36.2324 178.941 36.1543 179.207 35.998C179.473 35.8418 179.705 35.6328 179.904 35.3711L180.561 35.8926C180.424 36.0996 180.25 36.2969 180.039 36.4844C179.828 36.6719 179.568 36.8242 179.26 36.9414C178.955 37.0586 178.594 37.1172 178.176 37.1172ZM186.062 28V37H184.973V28H186.062ZM188.98 30.6602V37H187.891V30.6602H188.98ZM187.809 28.9785C187.809 28.8027 187.861 28.6543 187.967 28.5332C188.076 28.4121 188.236 28.3516 188.447 28.3516C188.654 28.3516 188.812 28.4121 188.922 28.5332C189.035 28.6543 189.092 28.8027 189.092 28.9785C189.092 29.1465 189.035 29.291 188.922 29.4121C188.812 29.5293 188.654 29.5879 188.447 29.5879C188.236 29.5879 188.076 29.5293 187.967 29.4121C187.861 29.291 187.809 29.1465 187.809 28.9785ZM191.799 31.9199V37H190.709V30.6602H191.74L191.799 31.9199ZM191.576 33.5898L191.072 33.5723C191.076 33.1387 191.133 32.7383 191.242 32.3711C191.352 32 191.514 31.6777 191.729 31.4043C191.943 31.1309 192.211 30.9199 192.531 30.7715C192.852 30.6191 193.223 30.543 193.645 30.543C193.941 30.543 194.215 30.5859 194.465 30.6719C194.715 30.7539 194.932 30.8848 195.115 31.0645C195.299 31.2441 195.441 31.4746 195.543 31.7559C195.645 32.0371 195.695 32.377 195.695 32.7754V37H194.611V32.8281C194.611 32.4961 194.555 32.2305 194.441 32.0312C194.332 31.832 194.176 31.6875 193.973 31.5977C193.77 31.5039 193.531 31.457 193.258 31.457C192.938 31.457 192.67 31.5137 192.455 31.627C192.24 31.7402 192.068 31.8965 191.939 32.0957C191.811 32.2949 191.717 32.5234 191.658 32.7812C191.604 33.0352 191.576 33.3047 191.576 33.5898ZM195.684 32.9922L194.957 33.2148C194.961 32.8672 195.018 32.5332 195.127 32.2129C195.24 31.8926 195.402 31.6074 195.613 31.3574C195.828 31.1074 196.092 30.9102 196.404 30.7656C196.717 30.6172 197.074 30.543 197.477 30.543C197.816 30.543 198.117 30.5879 198.379 30.6777C198.645 30.7676 198.867 30.9062 199.047 31.0938C199.23 31.2773 199.369 31.5137 199.463 31.8027C199.557 32.0918 199.604 32.4355 199.604 32.834V37H198.514V32.8223C198.514 32.4668 198.457 32.1914 198.344 31.9961C198.234 31.7969 198.078 31.6582 197.875 31.5801C197.676 31.498 197.438 31.457 197.16 31.457C196.922 31.457 196.711 31.498 196.527 31.5801C196.344 31.6621 196.189 31.7754 196.064 31.9199C195.939 32.0605 195.844 32.2227 195.777 32.4062C195.715 32.5898 195.684 32.7852 195.684 32.9922ZM202.422 30.6602V37H201.332V30.6602H202.422ZM201.25 28.9785C201.25 28.8027 201.303 28.6543 201.408 28.5332C201.518 28.4121 201.678 28.3516 201.889 28.3516C202.096 28.3516 202.254 28.4121 202.363 28.5332C202.477 28.6543 202.533 28.8027 202.533 28.9785C202.533 29.1465 202.477 29.291 202.363 29.4121C202.254 29.5293 202.096 29.5879 201.889 29.5879C201.678 29.5879 201.518 29.5293 201.408 29.4121C201.303 29.291 201.25 29.1465 201.25 28.9785ZM206.816 30.6602V31.4922H203.389V30.6602H206.816ZM204.549 29.1191H205.633V35.4297C205.633 35.6445 205.666 35.8066 205.732 35.916C205.799 36.0254 205.885 36.0977 205.99 36.1328C206.096 36.168 206.209 36.1855 206.33 36.1855C206.42 36.1855 206.514 36.1777 206.611 36.1621C206.713 36.1426 206.789 36.127 206.84 36.1152L206.846 37C206.76 37.0273 206.646 37.0527 206.506 37.0762C206.369 37.1035 206.203 37.1172 206.008 37.1172C205.742 37.1172 205.498 37.0645 205.275 36.959C205.053 36.8535 204.875 36.6777 204.742 36.4316C204.613 36.1816 204.549 35.8457 204.549 35.4238V29.1191ZM211.779 35.3184C211.779 35.1621 211.744 35.0176 211.674 34.8848C211.607 34.748 211.469 34.625 211.258 34.5156C211.051 34.4023 210.738 34.3047 210.32 34.2227C209.969 34.1484 209.65 34.0605 209.365 33.959C209.084 33.8574 208.844 33.7344 208.645 33.5898C208.449 33.4453 208.299 33.2754 208.193 33.0801C208.088 32.8848 208.035 32.6562 208.035 32.3945C208.035 32.1445 208.09 31.9082 208.199 31.6855C208.312 31.4629 208.471 31.2656 208.674 31.0938C208.881 30.9219 209.129 30.7871 209.418 30.6895C209.707 30.5918 210.029 30.543 210.385 30.543C210.893 30.543 211.326 30.6328 211.686 30.8125C212.045 30.9922 212.32 31.2324 212.512 31.5332C212.703 31.8301 212.799 32.1602 212.799 32.5234H211.715C211.715 32.3477 211.662 32.1777 211.557 32.0137C211.455 31.8457 211.305 31.707 211.105 31.5977C210.91 31.4883 210.67 31.4336 210.385 31.4336C210.084 31.4336 209.84 31.4805 209.652 31.5742C209.469 31.6641 209.334 31.7793 209.248 31.9199C209.166 32.0605 209.125 32.209 209.125 32.3652C209.125 32.4824 209.145 32.5879 209.184 32.6816C209.227 32.7715 209.301 32.8555 209.406 32.9336C209.512 33.0078 209.66 33.0781 209.852 33.1445C210.043 33.2109 210.287 33.2773 210.584 33.3438C211.104 33.4609 211.531 33.6016 211.867 33.7656C212.203 33.9297 212.453 34.1309 212.617 34.3691C212.781 34.6074 212.863 34.8965 212.863 35.2363C212.863 35.5137 212.805 35.7676 212.688 35.998C212.574 36.2285 212.408 36.4277 212.189 36.5957C211.975 36.7598 211.717 36.8887 211.416 36.9824C211.119 37.0723 210.785 37.1172 210.414 37.1172C209.855 37.1172 209.383 37.0176 208.996 36.8184C208.609 36.6191 208.316 36.3613 208.117 36.0449C207.918 35.7285 207.818 35.3945 207.818 35.043H208.908C208.924 35.3398 209.01 35.5762 209.166 35.752C209.322 35.9238 209.514 36.0469 209.74 36.1211C209.967 36.1914 210.191 36.2266 210.414 36.2266C210.711 36.2266 210.959 36.1875 211.158 36.1094C211.361 36.0312 211.516 35.9238 211.621 35.7871C211.727 35.6504 211.779 35.4941 211.779 35.3184Z" fill="#FF3824"/>
</svg>
