<svg width="232" height="129" viewBox="0 0 232 129" fill="none" xmlns="http://www.w3.org/2000/svg">
<rect y="5.79907" width="10" height="10.1402" rx="1" fill="#439090"/>
<rect y="17.9673" width="10" height="10.1402" rx="1" fill="#439090"/>
<rect y="30.1355" width="10" height="10.1402" rx="1" fill="#439090"/>
<rect y="42.3037" width="10" height="10.1402" rx="1" fill="#439090"/>
<rect y="54.472" width="10" height="10.1402" rx="1" fill="#439090"/>
<rect y="66.6402" width="10" height="10.1402" rx="1" fill="#439090"/>
<rect y="78.8084" width="10" height="10.1402" rx="1" fill="#439090"/>
<rect y="90.9766" width="10" height="10.1402" rx="1" fill="#439090"/>
<rect y="103.145" width="10" height="10.1402" rx="1" fill="#439090"/>
<rect y="115.313" width="10" height="10.1402" rx="1" fill="#439090"/>
<rect x="12" y="5.79907" width="10" height="10.1402" rx="1" fill="#439090"/>
<rect x="12" y="17.9673" width="10" height="10.1402" rx="1" fill="#439090"/>
<rect x="12" y="30.1355" width="10" height="10.1402" rx="1" fill="#439090"/>
<rect x="12" y="42.3037" width="10" height="10.1402" rx="1" fill="#439090"/>
<rect x="12" y="54.472" width="10" height="10.1402" rx="1" fill="#439090"/>
<rect x="12" y="66.6402" width="10" height="10.1402" rx="1" fill="#439090"/>
<rect x="12" y="78.8084" width="10" height="10.1402" rx="1" fill="#439090"/>
<rect x="12" y="90.9766" width="10" height="10.1402" rx="1" fill="#439090"/>
<rect x="12" y="103.145" width="10" height="10.1402" rx="1" fill="#439090"/>
<rect x="12" y="115.313" width="10" height="10.1402" rx="1" fill="#439090"/>
<rect x="24" y="5.79907" width="10" height="10.1402" rx="1" fill="#439090"/>
<rect x="24" y="17.9673" width="10" height="10.1402" rx="1" fill="#439090"/>
<rect x="24" y="30.1355" width="10" height="10.1402" rx="1" fill="#439090"/>
<rect x="24" y="42.3037" width="10" height="10.1402" rx="1" fill="#439090"/>
<rect x="24" y="54.472" width="10" height="10.1402" rx="1" fill="#439090"/>
<rect x="24" y="66.6402" width="10" height="10.1402" rx="1" fill="#439090"/>
<rect x="24" y="78.8084" width="10" height="10.1402" rx="1" fill="#439090"/>
<rect x="24" y="90.9766" width="10" height="10.1402" rx="1" fill="#439090"/>
<rect x="24" y="103.145" width="10" height="10.1402" rx="1" fill="#439090"/>
<rect x="24" y="115.313" width="10" height="10.1402" rx="1" fill="#439090"/>
<rect x="36" y="5.79907" width="10" height="10.1402" rx="1" fill="#439090"/>
<rect x="36" y="17.9673" width="10" height="10.1402" rx="1" fill="#439090"/>
<rect x="36" y="30.1355" width="10" height="10.1402" rx="1" fill="#439090"/>
<rect x="36" y="42.3037" width="10" height="10.1402" rx="1" fill="#439090"/>
<rect x="36" y="54.472" width="10" height="10.1402" rx="1" fill="#439090"/>
<rect x="36" y="66.6402" width="10" height="10.1402" rx="1" fill="#439090"/>
<rect x="36" y="78.8084" width="10" height="10.1402" rx="1" fill="#439090"/>
<rect x="36" y="90.9766" width="10" height="10.1402" rx="1" fill="#439090"/>
<rect x="36" y="103.145" width="10" height="10.1402" rx="1" fill="#439090"/>
<rect x="36" y="115.313" width="10" height="10.1402" rx="1" fill="#439090"/>
<rect x="48" y="5.79907" width="10" height="10.1402" rx="1" fill="#439090"/>
<rect x="48" y="17.9673" width="10" height="10.1402" rx="1" fill="#439090"/>
<rect x="48" y="30.1355" width="10" height="10.1402" rx="1" fill="#439090"/>
<rect x="48" y="42.3037" width="10" height="10.1402" rx="1" fill="#439090"/>
<rect x="48" y="54.472" width="10" height="10.1402" rx="1" fill="#439090"/>
<rect x="48" y="66.6402" width="10" height="10.1402" rx="1" fill="#439090"/>
<rect x="48" y="78.8084" width="10" height="10.1402" rx="1" fill="#439090"/>
<rect x="48" y="90.9766" width="10" height="10.1402" rx="1" fill="#439090"/>
<rect x="48" y="103.145" width="10" height="10.1402" rx="1" fill="#439090"/>
<rect x="48" y="115.313" width="10" height="10.1402" rx="1" fill="#439090"/>
<rect x="60" y="5.79907" width="10" height="10.1402" rx="1" fill="#439090"/>
<rect x="60" y="17.9673" width="10" height="10.1402" rx="1" fill="#439090"/>
<rect x="60" y="30.1355" width="10" height="10.1402" rx="1" fill="#439090"/>
<rect x="60" y="42.3037" width="10" height="10.1402" rx="1" fill="#439090"/>
<rect x="60" y="54.472" width="10" height="10.1402" rx="1" fill="#439090"/>
<rect x="60" y="66.6402" width="10" height="10.1402" rx="1" fill="#439090"/>
<rect x="60" y="78.8084" width="10" height="10.1402" rx="1" fill="#439090"/>
<rect x="60" y="90.9766" width="10" height="10.1402" rx="1" fill="#439090"/>
<rect x="60" y="103.145" width="10" height="10.1402" rx="1" fill="#439090"/>
<rect x="60" y="115.313" width="10" height="10.1402" rx="1" fill="#FF3824"/>
<rect x="72" y="5.79907" width="10" height="10.1402" rx="1" fill="#439090"/>
<rect x="72" y="17.9673" width="10" height="10.1402" rx="1" fill="#439090"/>
<rect x="72" y="30.1355" width="10" height="10.1402" rx="1" fill="#439090"/>
<rect x="72" y="42.3037" width="10" height="10.1402" rx="1" fill="#439090"/>
<rect x="72" y="54.472" width="10" height="10.1402" rx="1" fill="#439090"/>
<rect x="72" y="66.6402" width="10" height="10.1402" rx="1" fill="#439090"/>
<rect x="72" y="78.8084" width="10" height="10.1402" rx="1" fill="#439090"/>
<rect x="72" y="90.9766" width="10" height="10.1402" rx="1" fill="#439090"/>
<rect x="72" y="103.145" width="10" height="10.1402" rx="1" fill="#439090"/>
<rect x="72" y="115.313" width="10" height="10.1402" rx="1" fill="#FF3824"/>
<rect x="84" y="5.79907" width="10" height="10.1402" rx="1" fill="#439090"/>
<rect x="84" y="17.9673" width="10" height="10.1402" rx="1" fill="#439090"/>
<rect x="84" y="30.1355" width="10" height="10.1402" rx="1" fill="#439090"/>
<rect x="84" y="42.3037" width="10" height="10.1402" rx="1" fill="#439090"/>
<rect x="84" y="54.472" width="10" height="10.1402" rx="1" fill="#439090"/>
<rect x="84" y="66.6402" width="10" height="10.1402" rx="1" fill="#439090"/>
<rect x="84" y="78.8084" width="10" height="10.1402" rx="1" fill="#439090"/>
<rect x="84" y="90.9766" width="10" height="10.1402" rx="1" fill="#439090"/>
<rect x="84" y="103.145" width="10" height="10.1402" rx="1" fill="#439090"/>
<rect x="84" y="115.313" width="10" height="10.1402" rx="1" fill="#FF3824"/>
<rect x="96" y="5.79907" width="10" height="10.1402" rx="1" fill="#439090"/>
<rect x="96" y="17.9673" width="10" height="10.1402" rx="1" fill="#439090"/>
<rect x="96" y="30.1355" width="10" height="10.1402" rx="1" fill="#439090"/>
<rect x="96" y="42.3037" width="10" height="10.1402" rx="1" fill="#439090"/>
<rect x="96" y="54.472" width="10" height="10.1402" rx="1" fill="#439090"/>
<rect x="96" y="66.6402" width="10" height="10.1402" rx="1" fill="#439090"/>
<rect x="96" y="78.8084" width="10" height="10.1402" rx="1" fill="#439090"/>
<rect x="96" y="90.9766" width="10" height="10.1402" rx="1" fill="#439090"/>
<rect x="96" y="103.145" width="10" height="10.1402" rx="1" fill="#439090"/>
<rect x="96" y="115.313" width="10" height="10.1402" rx="1" fill="#FF3824"/>
<rect x="108" y="5.79907" width="10" height="10.1402" rx="1" fill="#439090"/>
<rect x="108" y="17.9673" width="10" height="10.1402" rx="1" fill="#439090"/>
<rect x="108" y="30.1355" width="10" height="10.1402" rx="1" fill="#439090"/>
<rect x="108" y="42.3037" width="10" height="10.1402" rx="1" fill="#439090"/>
<rect x="108" y="54.472" width="10" height="10.1402" rx="1" fill="#439090"/>
<rect x="108" y="66.6402" width="10" height="10.1402" rx="1" fill="#439090"/>
<rect x="108" y="78.8084" width="10" height="10.1402" rx="1" fill="#439090"/>
<rect x="108" y="90.9766" width="10" height="10.1402" rx="1" fill="#439090"/>
<rect x="108" y="103.145" width="10" height="10.1402" rx="1" fill="#439090"/>
<rect x="108" y="115.313" width="10" height="10.1402" rx="1" fill="#FF3824"/>
<path d="M123.331 103.369L124.417 94.2873H134.805V97.4855H127.762L127.359 101.013C127.652 100.842 128.034 100.692 128.506 100.562C128.986 100.432 129.454 100.366 129.91 100.366C131.676 100.366 133.031 100.891 133.975 101.941C134.927 102.983 135.403 104.448 135.403 106.336C135.403 107.475 135.147 108.508 134.634 109.436C134.13 110.356 133.418 111.064 132.498 111.56C131.578 112.057 130.492 112.305 129.239 112.305C128.124 112.305 127.078 112.077 126.102 111.621C125.125 111.157 124.36 110.527 123.807 109.729C123.253 108.924 122.981 108.016 122.989 107.007H127.115C127.155 107.658 127.363 108.175 127.737 108.557C128.112 108.94 128.604 109.131 129.214 109.131C130.598 109.131 131.29 108.106 131.29 106.055C131.29 104.159 130.443 103.211 128.75 103.211C127.79 103.211 127.074 103.52 126.602 104.138L123.331 103.369ZM137.576 97.7053C137.576 96.6066 137.934 95.7196 138.65 95.0441C139.367 94.3687 140.327 94.031 141.531 94.031C142.752 94.031 143.716 94.3687 144.424 95.0441C145.132 95.7115 145.486 96.6189 145.486 97.7663V98.6452C145.486 99.7439 145.132 100.627 144.424 101.294C143.716 101.961 142.76 102.295 141.556 102.295C140.359 102.295 139.395 101.966 138.663 101.306C137.938 100.639 137.576 99.7276 137.576 98.572V97.7053ZM140.225 98.6452C140.225 99.0684 140.343 99.4143 140.579 99.6828C140.815 99.9432 141.141 100.073 141.556 100.073C142.41 100.073 142.837 99.5282 142.837 98.4377V97.7053C142.837 97.2821 142.723 96.9362 142.496 96.6677C142.268 96.391 141.946 96.2526 141.531 96.2526C141.132 96.2526 140.815 96.3869 140.579 96.6555C140.343 96.9159 140.225 97.274 140.225 97.7297V98.6452ZM146.023 107.703C146.023 106.596 146.382 105.709 147.098 105.042C147.822 104.374 148.782 104.041 149.979 104.041C151.191 104.041 152.155 104.37 152.872 105.029C153.588 105.689 153.946 106.608 153.946 107.788V108.643C153.946 109.75 153.592 110.637 152.884 111.304C152.176 111.971 151.215 112.305 150.003 112.305C148.807 112.305 147.842 111.975 147.11 111.316C146.386 110.649 146.023 109.737 146.023 108.582V107.703ZM148.66 108.643C148.66 109.025 148.79 109.363 149.051 109.656C149.311 109.941 149.629 110.083 150.003 110.083C150.792 110.083 151.22 109.709 151.285 108.96L151.297 107.703C151.297 107.272 151.179 106.926 150.943 106.665C150.707 106.397 150.385 106.262 149.979 106.262C149.588 106.262 149.275 106.389 149.039 106.641C148.803 106.885 148.676 107.219 148.66 107.642V108.643ZM142.337 110.73L140.42 109.766L149.1 95.8742L151.016 96.8386L142.337 110.73ZM128.299 126.061H122.709V125.281L125.662 122C126.1 121.504 126.4 121.102 126.564 120.793C126.732 120.481 126.816 120.158 126.816 119.826C126.816 119.381 126.682 119.016 126.412 118.731C126.143 118.446 125.783 118.303 125.334 118.303C124.795 118.303 124.375 118.457 124.074 118.766C123.777 119.071 123.629 119.496 123.629 120.043H122.545C122.545 119.258 122.797 118.623 123.301 118.139C123.809 117.654 124.486 117.412 125.334 117.412C126.127 117.412 126.754 117.621 127.215 118.039C127.676 118.453 127.906 119.006 127.906 119.697C127.906 120.537 127.371 121.537 126.301 122.697L124.016 125.176H128.299V126.061ZM134.791 122.879H131.932V121.994H134.791V122.879ZM145.561 122.071C145.561 122.906 145.42 123.637 145.139 124.262C144.857 124.883 144.459 125.358 143.943 125.686C143.428 126.014 142.826 126.178 142.139 126.178C141.467 126.178 140.871 126.014 140.352 125.686C139.832 125.354 139.428 124.883 139.139 124.274C138.854 123.66 138.707 122.951 138.699 122.147V121.531C138.699 120.711 138.842 119.987 139.127 119.358C139.412 118.729 139.814 118.248 140.334 117.916C140.857 117.58 141.455 117.412 142.127 117.412C142.811 117.412 143.412 117.578 143.932 117.91C144.455 118.238 144.857 118.717 145.139 119.346C145.42 119.971 145.561 120.699 145.561 121.531V122.071ZM144.441 121.52C144.441 120.508 144.238 119.733 143.832 119.194C143.426 118.651 142.857 118.379 142.127 118.379C141.416 118.379 140.855 118.651 140.445 119.194C140.039 119.733 139.83 120.483 139.818 121.444V122.071C139.818 123.051 140.023 123.822 140.434 124.385C140.848 124.944 141.416 125.223 142.139 125.223C142.865 125.223 143.428 124.959 143.826 124.432C144.225 123.901 144.43 123.141 144.441 122.153V121.52ZM150.992 125.434C150.57 125.93 149.951 126.178 149.135 126.178C148.459 126.178 147.943 125.983 147.588 125.592C147.236 125.197 147.059 124.615 147.055 123.846V119.721H148.139V123.817C148.139 124.778 148.529 125.258 149.311 125.258C150.139 125.258 150.689 124.949 150.963 124.332V119.721H152.047V126.061H151.016L150.992 125.434ZM155.17 118.186V119.721H156.354V120.559H155.17V124.49C155.17 124.744 155.223 124.936 155.328 125.065C155.434 125.19 155.613 125.252 155.867 125.252C155.992 125.252 156.164 125.229 156.383 125.182V126.061C156.098 126.139 155.82 126.178 155.551 126.178C155.066 126.178 154.701 126.031 154.455 125.738C154.209 125.446 154.086 125.029 154.086 124.49V120.559H152.932V119.721H154.086V118.186H155.17ZM161.316 124.379C161.316 124.086 161.205 123.86 160.982 123.699C160.764 123.535 160.379 123.395 159.828 123.278C159.281 123.16 158.846 123.02 158.521 122.856C158.201 122.692 157.963 122.496 157.807 122.27C157.654 122.043 157.578 121.774 157.578 121.461C157.578 120.942 157.797 120.502 158.234 120.143C158.676 119.783 159.238 119.604 159.922 119.604C160.641 119.604 161.223 119.789 161.668 120.16C162.117 120.531 162.342 121.006 162.342 121.584H161.252C161.252 121.287 161.125 121.031 160.871 120.817C160.621 120.602 160.305 120.494 159.922 120.494C159.527 120.494 159.219 120.58 158.996 120.752C158.773 120.924 158.662 121.149 158.662 121.426C158.662 121.688 158.766 121.885 158.973 122.018C159.18 122.151 159.553 122.278 160.092 122.399C160.635 122.52 161.074 122.664 161.41 122.832C161.746 123 161.994 123.203 162.154 123.442C162.318 123.676 162.4 123.963 162.4 124.303C162.4 124.869 162.174 125.324 161.721 125.668C161.268 126.008 160.68 126.178 159.957 126.178C159.449 126.178 159 126.088 158.609 125.908C158.219 125.729 157.912 125.479 157.689 125.158C157.471 124.834 157.361 124.485 157.361 124.11H158.445C158.465 124.473 158.609 124.762 158.879 124.977C159.152 125.188 159.512 125.293 159.957 125.293C160.367 125.293 160.695 125.211 160.941 125.047C161.191 124.879 161.316 124.656 161.316 124.379ZM164.99 126.061H163.906V119.721H164.99V126.061ZM163.818 118.039C163.818 117.863 163.871 117.715 163.977 117.594C164.086 117.473 164.246 117.412 164.457 117.412C164.668 117.412 164.828 117.473 164.938 117.594C165.047 117.715 165.102 117.863 165.102 118.039C165.102 118.215 165.047 118.362 164.938 118.479C164.828 118.596 164.668 118.654 164.457 118.654C164.246 118.654 164.086 118.596 163.977 118.479C163.871 118.362 163.818 118.215 163.818 118.039ZM166.467 122.838C166.467 121.865 166.697 121.084 167.158 120.494C167.619 119.901 168.223 119.604 168.969 119.604C169.711 119.604 170.299 119.858 170.732 120.365V117.061H171.816V126.061H170.82L170.768 125.381C170.334 125.912 169.73 126.178 168.957 126.178C168.223 126.178 167.623 125.877 167.158 125.276C166.697 124.674 166.467 123.889 166.467 122.92V122.838ZM167.551 122.961C167.551 123.68 167.699 124.242 167.996 124.649C168.293 125.055 168.703 125.258 169.227 125.258C169.914 125.258 170.416 124.949 170.732 124.332V121.42C170.408 120.822 169.91 120.524 169.238 120.524C168.707 120.524 168.293 120.729 167.996 121.139C167.699 121.549 167.551 122.156 167.551 122.961ZM176.135 126.178C175.275 126.178 174.576 125.897 174.037 125.334C173.498 124.768 173.229 124.012 173.229 123.067V122.867C173.229 122.238 173.348 121.678 173.586 121.186C173.828 120.69 174.164 120.303 174.594 120.026C175.027 119.744 175.496 119.604 176 119.604C176.824 119.604 177.465 119.875 177.922 120.418C178.379 120.961 178.607 121.738 178.607 122.75V123.201H174.312C174.328 123.826 174.51 124.332 174.857 124.719C175.209 125.102 175.654 125.293 176.193 125.293C176.576 125.293 176.9 125.215 177.166 125.059C177.432 124.903 177.664 124.696 177.863 124.438L178.525 124.953C177.994 125.77 177.197 126.178 176.135 126.178ZM176 120.494C175.562 120.494 175.195 120.654 174.898 120.975C174.602 121.291 174.418 121.737 174.348 122.311H177.523V122.229C177.492 121.678 177.344 121.252 177.078 120.951C176.812 120.647 176.453 120.494 176 120.494ZM184.021 126.061H182.938V117.061H184.021V126.061ZM186.939 126.061H185.855V119.721H186.939V126.061ZM185.768 118.039C185.768 117.863 185.82 117.715 185.926 117.594C186.035 117.473 186.195 117.412 186.406 117.412C186.617 117.412 186.777 117.473 186.887 117.594C186.996 117.715 187.051 117.863 187.051 118.039C187.051 118.215 186.996 118.362 186.887 118.479C186.777 118.596 186.617 118.654 186.406 118.654C186.195 118.654 186.035 118.596 185.926 118.479C185.82 118.362 185.768 118.215 185.768 118.039ZM189.699 119.721L189.729 120.424C190.193 119.877 190.82 119.604 191.609 119.604C192.496 119.604 193.1 119.944 193.42 120.623C193.631 120.319 193.904 120.072 194.24 119.885C194.58 119.697 194.98 119.604 195.441 119.604C196.832 119.604 197.539 120.34 197.562 121.813V126.061H196.479V121.877C196.479 121.424 196.375 121.086 196.168 120.863C195.961 120.637 195.613 120.524 195.125 120.524C194.723 120.524 194.389 120.645 194.123 120.887C193.857 121.125 193.703 121.447 193.66 121.854V126.061H192.57V121.906C192.57 120.985 192.119 120.524 191.217 120.524C190.506 120.524 190.02 120.826 189.758 121.432V126.061H188.674V119.721H189.699ZM200.381 126.061H199.297V119.721H200.381V126.061ZM199.209 118.039C199.209 117.863 199.262 117.715 199.367 117.594C199.477 117.473 199.637 117.412 199.848 117.412C200.059 117.412 200.219 117.473 200.328 117.594C200.438 117.715 200.492 117.863 200.492 118.039C200.492 118.215 200.438 118.362 200.328 118.479C200.219 118.596 200.059 118.654 199.848 118.654C199.637 118.654 199.477 118.596 199.367 118.479C199.262 118.362 199.209 118.215 199.209 118.039ZM203.592 118.186V119.721H204.775V120.559H203.592V124.49C203.592 124.744 203.645 124.936 203.75 125.065C203.855 125.19 204.035 125.252 204.289 125.252C204.414 125.252 204.586 125.229 204.805 125.182V126.061C204.52 126.139 204.242 126.178 203.973 126.178C203.488 126.178 203.123 126.031 202.877 125.738C202.631 125.446 202.508 125.029 202.508 124.49V120.559H201.354V119.721H202.508V118.186H203.592ZM209.738 124.379C209.738 124.086 209.627 123.86 209.404 123.699C209.186 123.535 208.801 123.395 208.25 123.278C207.703 123.16 207.268 123.02 206.943 122.856C206.623 122.692 206.385 122.496 206.229 122.27C206.076 122.043 206 121.774 206 121.461C206 120.942 206.219 120.502 206.656 120.143C207.098 119.783 207.66 119.604 208.344 119.604C209.062 119.604 209.645 119.789 210.09 120.16C210.539 120.531 210.764 121.006 210.764 121.584H209.674C209.674 121.287 209.547 121.031 209.293 120.817C209.043 120.602 208.727 120.494 208.344 120.494C207.949 120.494 207.641 120.58 207.418 120.752C207.195 120.924 207.084 121.149 207.084 121.426C207.084 121.688 207.188 121.885 207.395 122.018C207.602 122.151 207.975 122.278 208.514 122.399C209.057 122.52 209.496 122.664 209.832 122.832C210.168 123 210.416 123.203 210.576 123.442C210.74 123.676 210.822 123.963 210.822 124.303C210.822 124.869 210.596 125.324 210.143 125.668C209.689 126.008 209.102 126.178 208.379 126.178C207.871 126.178 207.422 126.088 207.031 125.908C206.641 125.729 206.334 125.479 206.111 125.158C205.893 124.834 205.783 124.485 205.783 124.11H206.867C206.887 124.473 207.031 124.762 207.301 124.977C207.574 125.188 207.934 125.293 208.379 125.293C208.789 125.293 209.117 125.211 209.363 125.047C209.613 124.879 209.738 124.656 209.738 124.379Z" fill="#FF3824"/>
<path d="M133.192 16.8844C132.305 17.6819 131.312 18.0807 130.213 18.0807C128.602 18.0807 127.324 17.5354 126.38 16.4449C125.436 15.3545 124.964 13.8977 124.964 12.0748C124.964 10.9355 125.229 9.87756 125.758 8.901C126.287 7.92444 127.027 7.15133 127.979 6.58167C128.94 6.012 129.998 5.72717 131.153 5.72717C132.325 5.72717 133.383 6.02421 134.327 6.61829C135.279 7.20422 136.02 8.03837 136.549 9.12073C137.078 10.1949 137.35 11.436 137.367 12.8439V14.4186C137.367 16.3798 136.98 18.0807 136.207 19.5211C135.442 20.9615 134.347 22.0683 132.923 22.8414C131.499 23.6145 129.839 24.0011 127.943 24.0011H127.687V20.7052L128.468 20.693C131.3 20.5546 132.875 19.2851 133.192 16.8844ZM131.324 15.1144C132.219 15.1144 132.862 14.7278 133.253 13.9547V12.2457C133.253 11.1064 133.062 10.2641 132.679 9.71887C132.297 9.17362 131.78 8.901 131.129 8.901C130.551 8.901 130.067 9.21025 129.676 9.82874C129.286 10.4472 129.09 11.1959 129.09 12.0748C129.09 13.0026 129.29 13.7431 129.688 14.2965C130.087 14.8418 130.632 15.1144 131.324 15.1144ZM139.808 15.0656L140.895 5.98352H151.283V9.18176H144.239L143.836 12.7096C144.129 12.5387 144.512 12.3881 144.984 12.2579C145.464 12.1277 145.932 12.0626 146.388 12.0626C148.154 12.0626 149.509 12.5875 150.453 13.6373C151.405 14.679 151.881 16.1438 151.881 18.0319C151.881 19.1712 151.625 20.2047 151.112 21.1324C150.607 22.052 149.895 22.7601 148.976 23.2565C148.056 23.7529 146.97 24.0011 145.716 24.0011C144.601 24.0011 143.556 23.7732 142.579 23.3175C141.603 22.8536 140.838 22.2229 140.284 21.4254C139.731 20.6198 139.458 19.7124 139.466 18.7032H143.592C143.633 19.3543 143.84 19.8711 144.215 20.2535C144.589 20.636 145.082 20.8273 145.692 20.8273C147.075 20.8273 147.767 19.8019 147.767 17.7511C147.767 15.8549 146.921 14.9069 145.228 14.9069C144.268 14.9069 143.552 15.2161 143.08 15.8346L139.808 15.0656ZM154.054 9.40149C154.054 8.30286 154.412 7.41581 155.128 6.74036C155.844 6.0649 156.804 5.72717 158.009 5.72717C159.229 5.72717 160.194 6.0649 160.902 6.74036C161.61 7.40767 161.964 8.31506 161.964 9.46252V10.3414C161.964 11.4401 161.61 12.323 160.902 12.9904C160.194 13.6577 159.238 13.9913 158.033 13.9913C156.837 13.9913 155.873 13.6617 155.14 13.0026C154.416 12.3352 154.054 11.4238 154.054 10.2682V9.40149ZM156.703 10.3414C156.703 10.7646 156.821 11.1105 157.057 11.379C157.293 11.6394 157.618 11.7697 158.033 11.7697C158.888 11.7697 159.315 11.2244 159.315 10.1339V9.40149C159.315 8.97831 159.201 8.63245 158.973 8.36389C158.745 8.0872 158.424 7.94885 158.009 7.94885C157.61 7.94885 157.293 8.08313 157.057 8.35168C156.821 8.6121 156.703 8.97017 156.703 9.4259V10.3414ZM162.501 19.399C162.501 18.2923 162.859 17.4052 163.575 16.7379C164.299 16.0706 165.26 15.7369 166.456 15.7369C167.669 15.7369 168.633 16.0665 169.349 16.7257C170.065 17.3849 170.423 18.3045 170.423 19.4845V20.339C170.423 21.4458 170.069 22.3328 169.361 23.0001C168.653 23.6674 167.693 24.0011 166.48 24.0011C165.284 24.0011 164.32 23.6715 163.587 23.0123C162.863 22.345 162.501 21.4336 162.501 20.278V19.399ZM165.138 20.339C165.138 20.7215 165.268 21.0592 165.528 21.3522C165.789 21.637 166.106 21.7794 166.48 21.7794C167.27 21.7794 167.697 21.4051 167.762 20.6564L167.774 19.399C167.774 18.9677 167.656 18.6219 167.42 18.3615C167.184 18.0929 166.863 17.9586 166.456 17.9586C166.065 17.9586 165.752 18.0848 165.516 18.337C165.28 18.5812 165.154 18.9148 165.138 19.338V20.339ZM158.814 22.4264L156.898 21.462L165.577 7.57043L167.494 8.53479L158.814 22.4264ZM126.285 32.964H127.1C127.611 32.9562 128.014 32.8214 128.307 32.5597C128.6 32.298 128.746 31.9445 128.746 31.4991C128.746 30.4991 128.248 29.9991 127.252 29.9991C126.783 29.9991 126.408 30.1339 126.127 30.4034C125.85 30.6691 125.711 31.0226 125.711 31.464H124.627C124.627 30.7882 124.873 30.2277 125.365 29.7823C125.861 29.3331 126.49 29.1085 127.252 29.1085C128.057 29.1085 128.688 29.3214 129.145 29.7472C129.602 30.173 129.83 30.7648 129.83 31.5226C129.83 31.8937 129.709 32.2531 129.467 32.6007C129.229 32.9484 128.902 33.2081 128.488 33.38C128.957 33.5284 129.318 33.7745 129.572 34.1183C129.83 34.462 129.959 34.882 129.959 35.3781C129.959 36.1437 129.709 36.7511 129.209 37.2003C128.709 37.6495 128.059 37.8741 127.258 37.8741C126.457 37.8741 125.805 37.6573 125.301 37.2238C124.801 36.7902 124.551 36.2179 124.551 35.507H125.641C125.641 35.9562 125.787 36.3156 126.08 36.5851C126.373 36.8546 126.766 36.9894 127.258 36.9894C127.781 36.9894 128.182 36.8527 128.459 36.5792C128.736 36.3058 128.875 35.9132 128.875 35.4015C128.875 34.9054 128.723 34.5245 128.418 34.2589C128.113 33.9933 127.674 33.8566 127.1 33.8488H126.285V32.964ZM131.945 33.4796L132.379 29.2257H136.75V30.2277H133.299L133.041 32.5538C133.459 32.3077 133.934 32.1847 134.465 32.1847C135.242 32.1847 135.859 32.4425 136.316 32.9581C136.773 33.4698 137.002 34.1632 137.002 35.0382C137.002 35.9171 136.764 36.6105 136.287 37.1183C135.814 37.6222 135.152 37.8741 134.301 37.8741C133.547 37.8741 132.932 37.6652 132.455 37.2472C131.979 36.8292 131.707 36.2511 131.641 35.5128H132.666C132.732 36.0011 132.906 36.3702 133.188 36.6202C133.469 36.8663 133.84 36.9894 134.301 36.9894C134.805 36.9894 135.199 36.8175 135.484 36.4738C135.773 36.13 135.918 35.6554 135.918 35.0499C135.918 34.4796 135.762 34.0226 135.449 33.6788C135.141 33.3312 134.729 33.1573 134.213 33.1573C133.74 33.1573 133.369 33.2609 133.1 33.4679L132.812 33.7023L131.945 33.4796ZM143.529 34.5753H140.67V33.6906H143.529V34.5753ZM154.035 36.6378C153.746 37.0519 153.342 37.3624 152.822 37.5695C152.307 37.7726 151.705 37.8741 151.018 37.8741C150.322 37.8741 149.705 37.712 149.166 37.3878C148.627 37.0597 148.209 36.5948 147.912 35.9933C147.619 35.3917 147.469 34.6945 147.461 33.9015V33.1573C147.461 31.8722 147.76 30.8761 148.357 30.1691C148.959 29.462 149.803 29.1085 150.889 29.1085C151.779 29.1085 152.496 29.337 153.039 29.7941C153.582 30.2472 153.914 30.8917 154.035 31.7277H152.91C152.699 30.5988 152.027 30.0343 150.895 30.0343C150.141 30.0343 149.568 30.2999 149.178 30.8312C148.791 31.3585 148.596 32.1241 148.592 33.1281V33.8253C148.592 34.7823 148.811 35.5441 149.248 36.1105C149.686 36.673 150.277 36.9542 151.023 36.9542C151.445 36.9542 151.814 36.9073 152.131 36.8136C152.447 36.7198 152.709 36.5616 152.916 36.339V34.423H150.941V33.5089H154.035V36.6378ZM155.459 34.5284C155.459 33.9073 155.58 33.3488 155.822 32.8527C156.068 32.3566 156.408 31.9738 156.842 31.7042C157.279 31.4347 157.777 31.2999 158.336 31.2999C159.199 31.2999 159.896 31.5988 160.428 32.1964C160.963 32.7941 161.23 33.589 161.23 34.5812V34.6573C161.23 35.2745 161.111 35.8292 160.873 36.3214C160.639 36.8097 160.301 37.1906 159.859 37.464C159.422 37.7374 158.918 37.8741 158.348 37.8741C157.488 37.8741 156.791 37.5753 156.256 36.9777C155.725 36.38 155.459 35.589 155.459 34.6046V34.5284ZM156.549 34.6573C156.549 35.3605 156.711 35.9249 157.035 36.3507C157.363 36.7765 157.801 36.9894 158.348 36.9894C158.898 36.9894 159.336 36.7745 159.66 36.3448C159.984 35.9113 160.146 35.3058 160.146 34.5284C160.146 33.8331 159.98 33.2706 159.648 32.8409C159.32 32.4073 158.883 32.1906 158.336 32.1906C157.801 32.1906 157.369 32.4034 157.041 32.8292C156.713 33.255 156.549 33.8644 156.549 34.6573ZM162.303 34.5284C162.303 33.9073 162.424 33.3488 162.666 32.8527C162.912 32.3566 163.252 31.9738 163.686 31.7042C164.123 31.4347 164.621 31.2999 165.18 31.2999C166.043 31.2999 166.74 31.5988 167.271 32.1964C167.807 32.7941 168.074 33.589 168.074 34.5812V34.6573C168.074 35.2745 167.955 35.8292 167.717 36.3214C167.482 36.8097 167.145 37.1906 166.703 37.464C166.266 37.7374 165.762 37.8741 165.191 37.8741C164.332 37.8741 163.635 37.5753 163.1 36.9777C162.568 36.38 162.303 35.589 162.303 34.6046V34.5284ZM163.393 34.6573C163.393 35.3605 163.555 35.9249 163.879 36.3507C164.207 36.7765 164.645 36.9894 165.191 36.9894C165.742 36.9894 166.18 36.7745 166.504 36.3448C166.828 35.9113 166.99 35.3058 166.99 34.5284C166.99 33.8331 166.824 33.2706 166.492 32.8409C166.164 32.4073 165.727 32.1906 165.18 32.1906C164.645 32.1906 164.213 32.4034 163.885 32.8292C163.557 33.255 163.393 33.8644 163.393 34.6573ZM169.17 34.5343C169.17 33.5616 169.4 32.7804 169.861 32.1906C170.322 31.5968 170.926 31.2999 171.672 31.2999C172.414 31.2999 173.002 31.5538 173.436 32.0616V28.757H174.52V37.757H173.523L173.471 37.0773C173.037 37.6085 172.434 37.8741 171.66 37.8741C170.926 37.8741 170.326 37.5734 169.861 36.9718C169.4 36.3702 169.17 35.5851 169.17 34.6163V34.5343ZM170.254 34.6573C170.254 35.3761 170.402 35.9386 170.699 36.3448C170.996 36.7511 171.406 36.9542 171.93 36.9542C172.617 36.9542 173.119 36.6456 173.436 36.0284V33.1163C173.111 32.5187 172.613 32.2198 171.941 32.2198C171.41 32.2198 170.996 32.4249 170.699 32.8351C170.402 33.2452 170.254 33.8527 170.254 34.6573Z" fill="#439090"/>
</svg>
